<svg xmlns="http://www.w3.org/2000/svg" width="30" height="30" viewBox="0 0 30 30">
  <defs>
    <style>
      .cls-1, .cls-2, .cls-3, .cls-4 {
        fill: none;
      }

      .cls-1, .cls-2 {
        stroke: #37354e;
      }

      .cls-1, .cls-2, .cls-3 {
        stroke-miterlimit: 10;
      }

      .cls-2 {
        stroke-linecap: round;
      }

      .cls-3 {
        stroke: #6839d3;
      }
    </style>
  </defs>
  <g id="ico_list_cafe_big" transform="translate(112.233 -0.021)">
    <g id="그룹_4421" data-name="그룹 4421">
      <path id="패스_3751" data-name="패스 3751" class="cls-1" d="M-89.81,22.906l-.227,4.4a1.09,1.09,0,0,1-1.09,1.032H-103.34a1.09,1.09,0,0,1-1.09-1.032l-.226-4.365"/>
      <path id="패스_3752" data-name="패스 3752" class="cls-1" d="M-105.145,13.449l-.186-3.612h16.2l-.181,3.515"/>
      <path id="패스_3753" data-name="패스 3753" class="cls-1" d="M-88.489,9.77h-17.487a.757.757,0,0,1-.74-.926l.889-3.829a.949.949,0,0,1,.926-.733h15.336a.951.951,0,0,1,.927.733l.888,3.829A.756.756,0,0,1-88.489,9.77Z"/>
      <line id="선_37" data-name="선 37" class="cls-2" x2="11.842" transform="translate(-103.153 1.707)"/>
      <path id="패스_3754" data-name="패스 3754" class="cls-3" d="M-89.4,22.852H-105.06a.707.707,0,0,1-.7-.668l-.526-8.04a.709.709,0,0,1,.7-.763h16.708a.709.709,0,0,1,.7.763l-.527,8.04A.706.706,0,0,1-89.4,22.852Z"/>
    </g>
    <g id="그룹_4422" data-name="그룹 4422">
      <rect id="사각형_3419" data-name="사각형 3419" class="cls-4" width="30" height="30" transform="translate(-112.233 0.021)"/>
    </g>
  </g>
</svg>
