<svg xmlns="http://www.w3.org/2000/svg" xmlns:xlink="http://www.w3.org/1999/xlink" width="12" height="12" viewBox="0 0 12 12">
  <defs>
    <style>
      .cls-1 {
        fill: #ff8282;
        opacity: 0;
      }

      .cls-2, .cls-3, .cls-4, .cls-5, .cls-7 {
        fill: none;
      }

      .cls-2, .cls-4 {
        stroke: #737183;
      }

      .cls-3 {
        stroke: #37354e;
      }

      .cls-3, .cls-4 {
        stroke-width: 2px;
      }

      .cls-6 {
        stroke: none;
      }

      .cls-7 {
        clip-path: url(#clip);
      }
    </style>
    <clipPath id="clip">
      <use xlink:href="#fill"/>
    </clipPath>
  </defs>
  <g id="ico_unlink" transform="translate(1 1)">
    <rect id="area" class="cls-1" width="10" height="10"/>
    <g id="그룹_4040" data-name="그룹 4040" transform="translate(0.5 0.064)">
      <g id="사각형_2124" data-name="사각형 2124" class="cls-2" transform="translate(0 3.111)">
        <rect class="cls-6" width="9" height="6.889" rx="2"/>
        <rect class="cls-5" x="0.5" y="0.5" width="8" height="5.889" rx="1.5"/>
      </g>
      <g id="사각형_2109" data-name="사각형 2109" class="cls-2" transform="translate(2.164 0.037)">
        <path class="cls-6" d="M2.3,0h0A2.3,2.3,0,0,1,4.6,2.3V4a0,0,0,0,1,0,0H0A0,0,0,0,1,0,4V2.3A2.3,2.3,0,0,1,2.3,0Z"/>
        <path class="cls-5" d="M2.3.5h0A1.8,1.8,0,0,1,4.1,2.3V3.454a.046.046,0,0,1-.046.046H.546A.046.046,0,0,1,.5,3.454V2.3A1.8,1.8,0,0,1,2.3.5Z"/>
      </g>
      <g id="사각형_2110" data-name="사각형 2110" class="cls-3" transform="translate(4.909 5.374)">
        <rect id="fill" class="cls-6" height="1.555"/>
        <path class="cls-7" d="M0,0.5552765130996704h0.000010000005204346962M1,0v1.5552765130996704M0.000010000005204346962,1h-0.000010000005204346962M-0.9999899999947957,1.5552765130996704v-1.5552765130996704"/>
      </g>
      <g id="타원_286" data-name="타원 286" class="cls-4" transform="translate(3.722 5.758)">
        <circle class="cls-6" cx="0.778" cy="0.778" r="0.778"/>
        <circle class="cls-5" cx="0.778" cy="0.778" r="0.222"/>
      </g>
    </g>
    <rect id="사각형_3187" data-name="사각형 3187" class="cls-5" width="12" height="12" transform="translate(-1 -1)"/>
  </g>
</svg>
