<svg id="ico_list_album_big" xmlns="http://www.w3.org/2000/svg" width="30" height="30" viewBox="0 0 30 30">
  <defs>
    <style>
      .cls-1, .cls-2, .cls-3, .cls-4, .cls-5 {
        fill: none;
      }

      .cls-1, .cls-4 {
        stroke: #6839d3;
      }

      .cls-1, .cls-3 {
        stroke-linecap: round;
      }

      .cls-1, .cls-2, .cls-3, .cls-4 {
        stroke-miterlimit: 10;
      }

      .cls-2, .cls-3 {
        stroke: #37454e;
      }

      .cls-6 {
        stroke: none;
      }
    </style>
  </defs>
  <g id="그룹_4074" data-name="그룹 4074">
    <path id="패스_3679" data-name="패스 3679" class="cls-1" d="M2.779,15.774,9.911,8.046A.68.68,0,0,1,11,8.117l6.451,8.688"/>
    <path id="패스_3680" data-name="패스 3680" class="cls-1" d="M10.319,24.727,20.526,13.745a.68.68,0,0,1,1.086.071L24.7,17.974"/>
    <g id="사각형_3182" data-name="사각형 3182" class="cls-2" transform="translate(25.487 2.117) rotate(90)">
      <rect class="cls-6" width="23.253" height="23.487" rx="1.271"/>
      <rect class="cls-5" x="0.5" y="0.5" width="22.253" height="22.487" rx="0.771"/>
    </g>
    <path id="패스_3681" data-name="패스 3681" class="cls-3" d="M26.4,4.63a1.6,1.6,0,0,1,1.6,1.6V26.287a1.6,1.6,0,0,1-1.6,1.6H6.109a1.6,1.6,0,0,1-1.6-1.6"/>
    <circle id="타원_1566" data-name="타원 1566" class="cls-4" cx="2.206" cy="2.206" r="2.206" transform="translate(16.417 6.534)"/>
  </g>
  <rect id="사각형_3183" data-name="사각형 3183" class="cls-5" width="30" height="30" transform="translate(0 0)"/>
</svg>
