<svg id="ico_list_hairshop_big" xmlns="http://www.w3.org/2000/svg" width="30" height="30" viewBox="0 0 30 30">
  <defs>
    <style>
      .cls-1, .cls-2, .cls-3 {
        fill: none;
      }

      .cls-2 {
        stroke: #37454e;
        stroke-linecap: round;
        stroke-linejoin: round;
      }

      .cls-3 {
        stroke: #6839d3;
        stroke-miterlimit: 10;
      }
    </style>
  </defs>
  <g id="그룹_4052" data-name="그룹 4052">
    <rect id="사각형_3172" data-name="사각형 3172" class="cls-1" width="30" height="30" transform="translate(0 0)"/>
  </g>
  <g id="그룹_4053" data-name="그룹 4053">
    <path id="패스_3668" data-name="패스 3668" class="cls-2" d="M16.494,20.3l.778-18.644a.2.2,0,0,0-.385-.06L12.6,17.141l2.309.188L14.78,20.9"/>
    <circle id="타원_1555" data-name="타원 1555" class="cls-3" cx="3.957" cy="3.957" r="3.957" transform="translate(12.261 20.633)"/>
    <circle id="타원_1556" data-name="타원 1556" class="cls-3" cx="2.12" cy="2.12" r="2.12" transform="translate(14.098 22.47)"/>
    <circle id="타원_1557" data-name="타원 1557" class="cls-3" cx="2.12" cy="2.12" r="2.12" transform="translate(4.678 16.674)"/>
    <path id="패스_3669" data-name="패스 3669" class="cls-2" d="M16.793,13.143,26.828,7.537a.2.2,0,0,1,.228.317l-10.437,9.47"/>
    <line id="선_25" data-name="선 25" class="cls-2" y1="1.454" x2="2.603" transform="translate(10.537 15.183)"/>
    <circle id="타원_1558" data-name="타원 1558" class="cls-3" cx="3.957" cy="3.957" r="3.957" transform="translate(2.878 14.86)"/>
  </g>
</svg>
