<svg xmlns="http://www.w3.org/2000/svg" width="30" height="30" viewBox="0 0 30 30">
  <defs>
    <style>
      .cls-1, .cls-2, .cls-3 {
        fill: none;
      }

      .cls-1 {
        stroke: #37354e;
      }

      .cls-1, .cls-2 {
        stroke-miterlimit: 10;
      }

      .cls-2 {
        stroke: #774cd7;
      }
    </style>
  </defs>
  <g id="ico_list_book_big" transform="translate(-48.208 -95.573)">
    <g id="그룹_4459" data-name="그룹 4459">
      <g id="그룹_4456" data-name="그룹 4456">
        <rect id="사각형_3431" data-name="사각형 3431" class="cls-1" width="16.312" height="22.251" rx="0.816" transform="translate(51.851 99.594)"/>
        <line id="선_50" data-name="선 50" class="cls-1" y2="22.163" transform="translate(53.89 99.683)"/>
        <rect id="사각형_3432" data-name="사각형 3432" class="cls-1" width="6.117" height="2.571" rx="0.54" transform="translate(57.968 103.406)"/>
      </g>
      <g id="그룹_4458" data-name="그룹 4458">
        <g id="그룹_4457" data-name="그룹 4457">
          <path id="패스_3775" data-name="패스 3775" class="cls-2" d="M74.113,119.19l-2.429,0a.442.442,0,0,1-.442-.442l.01-17.087a.446.446,0,0,1,.069-.238L72.54,99.5a.443.443,0,0,1,.747,0l1.21,1.917a.444.444,0,0,1,.068.236l-.01,17.088A.442.442,0,0,1,74.113,119.19Z"/>
          <path id="패스_3776" data-name="패스 3776" class="cls-2" d="M73.977,119.429V120.5a.993.993,0,0,1-.994.993h-.17a.994.994,0,0,1-.992-.994v-1.072"/>
        </g>
        <path id="패스_3777" data-name="패스 3777" class="cls-2" d="M71.321,101.421s1.233,1.449,3.176,0"/>
      </g>
    </g>
    <g id="그룹_4460" data-name="그룹 4460">
      <rect id="사각형_3433" data-name="사각형 3433" class="cls-3" width="30" height="30" transform="translate(48.208 95.573)"/>
    </g>
  </g>
</svg>
