<svg xmlns="http://www.w3.org/2000/svg" width="14" height="14" viewBox="0 0 14 14">
  <defs>
    <style>
      .cls-1, .cls-3 {
        fill: #fff;
      }

      .cls-2, .cls-5 {
        fill: none;
      }

      .cls-2 {
        stroke: #fff;
        stroke-width: 0.5px;
      }

      .cls-3 {
        stroke: #707070;
        opacity: 0;
      }

      .cls-4 {
        stroke: none;
      }
    </style>
  </defs>
  <g id="ico_expense_modify_w" transform="translate(0.368 0.368)">
    <g id="icon" transform="translate(1.48 1.479)">
      <rect id="사각형_3128" data-name="사각형 3128" class="cls-1" width="3.713" height="1.1" rx="0.55" transform="translate(5.594 1.457) rotate(45)"/>
      <path id="패스_2478" data-name="패스 2478" class="cls-2" d="M7.788,54.466a.215.215,0,0,0,.15-.062l6.818-6.818a.213.213,0,0,0,0-.3L11.942,44.47a.213.213,0,0,0-.3,0L4.823,51.289a.214.214,0,0,0-.062.15v2.817a.21.21,0,0,0,.21.21H7.788m0,.457H4.971a.668.668,0,0,1-.667-.667V51.439a.67.67,0,0,1,.195-.472l6.82-6.82a.669.669,0,0,1,.945,0l2.817,2.817a.669.669,0,0,1,0,.945L8.26,54.728A.671.671,0,0,1,7.788,54.923Z" transform="translate(-4.304 -43.951)"/>
      <rect id="사각형_3129" data-name="사각형 3129" class="cls-1" width="4.125" height="1.1" rx="0.55" transform="translate(6.879 10.179)"/>
    </g>
    <g id="사각형_2239" data-name="사각형 2239" class="cls-3" transform="translate(-0.368 -0.368)">
      <rect class="cls-4" width="14" height="14"/>
      <rect class="cls-5" x="0.5" y="0.5" width="13" height="13"/>
    </g>
  </g>
</svg>
