<svg id="ico_list_gift_big" xmlns="http://www.w3.org/2000/svg" width="30" height="30" viewBox="0 0 30 30">
  <defs>
    <style>
      .cls-1, .cls-2, .cls-3, .cls-4 {
        fill: none;
      }

      .cls-2, .cls-4 {
        stroke: #6839d3;
      }

      .cls-2 {
        stroke-linecap: round;
      }

      .cls-2, .cls-3, .cls-4 {
        stroke-miterlimit: 10;
      }

      .cls-3 {
        stroke: #37454e;
      }
    </style>
  </defs>
  <g id="그룹_4029" data-name="그룹 4029">
    <rect id="사각형_3158" data-name="사각형 3158" class="cls-1" width="30" height="30" transform="translate(0 0)"/>
  </g>
  <g id="그룹_4031" data-name="그룹 4031">
    <g id="그룹_4030" data-name="그룹 4030">
      <path id="패스_3651" data-name="패스 3651" class="cls-2" d="M13.914,2.187c.934,1.138.974,5.378.974,5.378s-4.1-.807-5.038-1.945a2.71,2.71,0,0,1,.34-3.778A2.62,2.62,0,0,1,13.914,2.187Z"/>
      <path id="패스_3652" data-name="패스 3652" class="cls-2" d="M16.086,2.187c-.934,1.138-.974,5.378-.974,5.378s4.1-.807,5.038-1.945a2.71,2.71,0,0,0-.34-3.778A2.62,2.62,0,0,0,16.086,2.187Z"/>
    </g>
    <path id="패스_3653" data-name="패스 3653" class="cls-2" d="M4.775,4.564S6.683,8.682,15.014,7.82"/>
    <path id="패스_3654" data-name="패스 3654" class="cls-2" d="M24.733,4.564S22.825,8.682,14.494,7.82"/>
    <path id="패스_3655" data-name="패스 3655" class="cls-3" d="M26.048,13.932V25.418a2.854,2.854,0,0,1-2.833,2.874H6.785a2.854,2.854,0,0,1-2.833-2.874V13.932"/>
    <line id="선_15" data-name="선 15" class="cls-3" x2="22.096" transform="translate(3.952 13.808)"/>
    <rect id="사각형_3159" data-name="사각형 3159" class="cls-3" width="24.306" height="5.417" rx="1.081" transform="translate(2.847 8.392)"/>
    <line id="선_16" data-name="선 16" class="cls-4" x1="0.014" y2="21.027" transform="translate(15.104 7.752)"/>
  </g>
</svg>
