<svg id="ico_list_sports_big" xmlns="http://www.w3.org/2000/svg" width="30" height="30" viewBox="0 0 30 30">
  <defs>
    <style>
      .cls-1, .cls-2, .cls-3, .cls-4 {
        fill: none;
      }

      .cls-2, .cls-3 {
        stroke: #6839d3;
      }

      .cls-2, .cls-3, .cls-4 {
        stroke-miterlimit: 10;
      }

      .cls-3 {
        stroke-linecap: round;
      }

      .cls-4 {
        stroke: #37454e;
      }
    </style>
  </defs>
  <g id="그룹_4067" data-name="그룹 4067">
    <rect id="사각형_3177" data-name="사각형 3177" class="cls-1" width="30" height="30" transform="translate(0 0)"/>
  </g>
  <g id="그룹_4068" data-name="그룹 4068">
    <line id="선_29" data-name="선 29" class="cls-2" x2="9.374" transform="translate(10.056 15.178)"/>
    <line id="선_30" data-name="선 30" class="cls-3" x2="1.874" transform="translate(1.463 15.178)"/>
    <line id="선_31" data-name="선 31" class="cls-3" x1="2.055" transform="translate(26.482 14.822)"/>
    <rect id="사각형_3178" data-name="사각형 3178" class="cls-4" width="4.186" height="16.444" rx="1.386" transform="translate(6.169 6.956)"/>
    <path id="패스_3676" data-name="패스 3676" class="cls-4" d="M6.372,20.659H4.939c-.785,0-1.423-.85-1.423-1.9V11.6c0-1.049.638-1.9,1.423-1.9H6.372"/>
    <rect id="사각형_3179" data-name="사각형 3179" class="cls-4" width="4.186" height="16.444" rx="1.386" transform="translate(23.83 23.044) rotate(-180)"/>
    <path id="패스_3677" data-name="패스 3677" class="cls-4" d="M23.627,20.3h1.432c.786,0,1.423-.85,1.423-1.9V11.24c0-1.049-.637-1.9-1.423-1.9H23.627"/>
  </g>
</svg>
