<svg xmlns="http://www.w3.org/2000/svg" width="30" height="30" viewBox="0 0 30 30">
  <defs>
    <style>
      .cls-1, .cls-2, .cls-4, .cls-5 {
        fill: none;
      }

      .cls-1, .cls-4 {
        stroke: #37354e;
      }

      .cls-1, .cls-2, .cls-4 {
        stroke-miterlimit: 10;
      }

      .cls-2 {
        stroke: #774cd7;
      }

      .cls-3 {
        fill: #774cd7;
      }

      .cls-4 {
        stroke-linecap: round;
      }
    </style>
  </defs>
  <g id="ico_list_life_big" transform="translate(-8.187 -61.417)">
    <g id="그룹_4453" data-name="그룹 4453">
      <path id="패스_3772" data-name="패스 3772" class="cls-1" d="M34.268,64.84V63.326a.682.682,0,0,0-.682-.682h-20.8a.682.682,0,0,0-.682.682V64.84a.682.682,0,0,0,.682.682h.555a.683.683,0,0,1,.682.682V83.741a.682.682,0,0,1-.682.682h-.555a.682.682,0,0,0-.682.682V86.62a.682.682,0,0,0,.682.682h20.8a.682.682,0,0,0,.682-.682V85.105a.682.682,0,0,0-.682-.682h-.555a.682.682,0,0,1-.682-.682V66.2a.683.683,0,0,1,.682-.682h.555A.682.682,0,0,0,34.268,64.84Z"/>
      <g id="그룹_4449" data-name="그룹 4449">
        <path id="패스_3773" data-name="패스 3773" class="cls-1" d="M16.059,87.582l-.432,2.286a.4.4,0,0,1-.389.322H14a.4.4,0,0,1-.389-.469l.405-2.139"/>
        <path id="패스_3774" data-name="패스 3774" class="cls-1" d="M30.3,87.582l.432,2.286a.4.4,0,0,0,.389.322h1.239a.4.4,0,0,0,.388-.469l-.4-2.139"/>
      </g>
      <g id="그룹_4452" data-name="그룹 4452">
        <g id="그룹_4450" data-name="그룹 4450">
          <rect id="사각형_3428" data-name="사각형 3428" class="cls-2" width="6.273" height="15.153" rx="0.291" transform="translate(23.994 67.355)"/>
          <circle id="타원_1650" data-name="타원 1650" class="cls-3" cx="0.812" cy="0.812" r="0.812" transform="translate(25.028 73.974)"/>
        </g>
        <g id="그룹_4451" data-name="그룹 4451">
          <rect id="사각형_3429" data-name="사각형 3429" class="cls-2" width="6.273" height="15.153" rx="0.291" transform="translate(22.379 82.508) rotate(-180)"/>
          <circle id="타원_1651" data-name="타원 1651" class="cls-3" cx="0.812" cy="0.812" r="0.812" transform="translate(19.722 73.974)"/>
        </g>
      </g>
      <line id="선_49" data-name="선 49" class="cls-4" x2="13.103" transform="translate(15.751 84.391)"/>
    </g>
    <g id="그룹_4454" data-name="그룹 4454">
      <rect id="사각형_3430" data-name="사각형 3430" class="cls-5" width="30" height="30" transform="translate(8.187 61.417)"/>
    </g>
  </g>
</svg>
