<svg id="ico_list_new" xmlns="http://www.w3.org/2000/svg" width="30" height="30" viewBox="0 0 30 30">
  <defs>
    <style>
      .cls-1 {
        fill: #6839d3;
      }

      .cls-2, .cls-3 {
        fill: #fff;
      }

      .cls-3 {
        stroke: #707070;
        opacity: 0;
      }

      .cls-4 {
        stroke: none;
      }

      .cls-5 {
        fill: none;
      }
    </style>
  </defs>
  <g id="icon" transform="translate(-1.304 -40.451)">
    <circle id="타원_1535" data-name="타원 1535" class="cls-1" cx="12" cy="12" r="12" transform="translate(4.304 43.451)"/>
    <path id="합치기_45" data-name="합치기 45" class="cls-2" d="M-10957.2,6866.951v-6h-6a.5.5,0,0,1-.5-.5.5.5,0,0,1,.5-.5h6v-6a.5.5,0,0,1,.5-.5.5.5,0,0,1,.5.5v6h6a.5.5,0,0,1,.5.5.5.5,0,0,1-.5.5h-6v6a.5.5,0,0,1-.5.5A.5.5,0,0,1-10957.2,6866.951Z" transform="translate(10973 -6805)"/>
  </g>
  <g id="사각형_2239" data-name="사각형 2239" class="cls-3">
    <rect class="cls-4" width="30" height="30"/>
    <rect class="cls-5" x="0.5" y="0.5" width="29" height="29"/>
  </g>
</svg>
