<svg id="ico_lock" xmlns="http://www.w3.org/2000/svg" width="13" height="14" viewBox="0 0 13 14">
  <defs>
    <style>
      .cls-1 {
        fill: #6839d3;
      }
    </style>
  </defs>
  <path id="패스_144" data-name="패스 144" class="cls-1" d="M10.77,5.9A1.229,1.229,0,0,1,12,7.13v4.64A1.229,1.229,0,0,1,10.77,13H2.23A1.229,1.229,0,0,1,1,11.77V7.13A1.229,1.229,0,0,1,2.23,5.9h8.54m0-1H2.23A2.232,2.232,0,0,0,0,7.13v4.64A2.232,2.232,0,0,0,2.23,14h8.54A2.232,2.232,0,0,0,13,11.77V7.13A2.232,2.232,0,0,0,10.77,4.9Z"/>
  <path id="패스_145" data-name="패스 145" class="cls-1" d="M10,5.75H9V3.5a2.5,2.5,0,0,0-5,0V5.75H3V3.5a3.5,3.5,0,0,1,7,0Z"/>
  <g id="그룹_217" data-name="그룹 217">
    <path id="패스_146" data-name="패스 146" class="cls-1" d="M6.5,10.28A1.625,1.625,0,1,1,8.12,8.65,1.62,1.62,0,0,1,6.5,10.28Zm0-2.25a.623.623,0,0,0-.62.62.632.632,0,0,0,.62.63.625.625,0,0,0,.62-.63A.617.617,0,0,0,6.5,8.03Z"/>
    <path id="패스_147" data-name="패스 147" class="cls-1" d="M6.5,12.15a.5.5,0,0,1-.5-.5v-1.5a.5.5,0,0,1,1,0v1.5A.5.5,0,0,1,6.5,12.15Z"/>
  </g>
</svg>
