<svg xmlns="http://www.w3.org/2000/svg" width="100" height="100" viewBox="0 0 100 100">
    <defs>
        <clipPath id="ycrkkbx0ma">
            <circle data-name="타원 1761" cx="50" cy="50" r="50" transform="translate(7592.091 2025.868)" style="fill:none"/>
        </clipPath>
    </defs>
    <g transform="translate(-7592.091 -2025.867)">
        <circle data-name="타원 1760" cx="50" cy="50" r="50" transform="translate(7592.091 2025.867)" style="fill:#d2d4ef"/>
        <g data-name="그룹 4628">
            <g data-name="그룹 4619">
                <g data-name="그룹 4618" style="clip-path:url(#ycrkkbx0ma)">
                    <g data-name="그룹 4617">
                        <path data-name="사각형 3448" d="M36.568 0a36.568 36.568 0 0 1 36.567 36.568v21.849a14.718 14.718 0 0 1-14.718 14.718h-43.7A14.718 14.718 0 0 1 0 58.417V36.568A36.568 36.568 0 0 1 36.568 0z" transform="translate(7606.061 2092.173)" style="fill:#191919"/>
                        <g data-name="그룹 4615">
                            <path data-name="패스 3896" d="m7632.776 2111.536-11.47-9.776a1.5 1.5 0 0 1 .306-2.485 1.5 1.5 0 0 1 1.03-.111l14.837 3.709a1.5 1.5 0 0 1 .947 2.182l-3.367 6.068a1.5 1.5 0 0 1-2.283.413z" style="fill:#fff"/>
                            <path data-name="패스 3897" d="m7652.481 2111.536 11.47-9.776a1.5 1.5 0 0 0-.306-2.485 1.5 1.5 0 0 0-1.03-.111l-14.837 3.709a1.5 1.5 0 0 0-.947 2.182l3.367 6.068a1.5 1.5 0 0 0 2.283.413z" style="fill:#fff"/>
                        </g>
                        <g data-name="그룹 4616">
                            <path data-name="패스 3898" d="M7648.615 2136.386h-11.974l2.078-26.552h7.819z" style="fill:#c13f25"/>
                            <rect data-name="사각형 3449" width="11.427" height="11.132" rx="5.566" transform="translate(7636.915 2102.223)" style="fill:#e2451b"/>
                        </g>
                        <g data-name="패스 3899" style="stroke-miterlimit:10;fill:#262625">
                            <path d="M7643.39 2104.952c-.248 0-.5-.002-.747-.005h-.028c-.252.003-.496.005-.746.005-6.026 0-11.827-1.063-16.776-3.074-4.836-1.965-8.766-4.794-11.365-8.18-3.4-4.429-4.427-9.655-2.968-15.112.527-1.974.644-2.672.96-4.537.16-.952.38-2.257.738-4.221l.017-.09a8.99 8.99 0 0 0 .02-.111l.038-.2.021-.11.002-.006v-.007l.055-.28.025-.13v-.004l.144-.687.01-.045.005-.031.004-.019v-.002l.023-.097.021-.097.001-.004v-.003l.029-.123.012-.055.015-.064c.544-2.392.911-3.81 1.123-4.58.17-.517 2.34-5.935 4.811-11.522 1.438-3.25 2.716-5.97 3.8-8.085 1.614-3.15 2.463-4.31 2.89-4.727.337-.328.77-.397 1.072-.397.545 0 1.1.22 1.487.589 2.4 2.29 6.823 6.762 9.472 10.978.7 1.113 1.985 1.805 3.351 1.805H7641.015l.146-.003h.224l.102-.001h.081l.156-.001h.38l.025-.001.015-.001c.065 0 .13 0 .194.002h.125l.134.001H7642.803l.116-.001.194-.002h.014l.025.002H7643.77l.102.002h.224l.146.002H7644.35c1.367 0 2.651-.69 3.351-1.804 2.65-4.216 7.071-8.688 9.471-10.978a2.203 2.203 0 0 1 1.488-.59c.303 0 .735.07 1.072.398.672.656 2.434 3.192 6.69 12.811 2.472 5.59 4.641 11.007 4.81 11.523.302 1.093.677 2.621 1.116 4.544l.022.096.01.048.003.01.003.01.016.073.01.044.045.201v.003l.022.1c.02.09.038.18.056.27l.003.013.027.13.03.143.025.126.025.129c.019.093.037.187.054.281l.001.007.002.006.021.11.05.269.02.106.005.026c.358 1.962.578 3.266.74 4.218.314 1.867.431 2.565.959 4.54 1.459 5.458.433 10.685-2.969 15.114-2.6 3.385-6.529 6.214-11.365 8.178-4.948 2.011-10.748 3.074-16.774 3.074z" style="stroke:none"/>
                            <path d="M7643.39 2103.95c5.898 0 11.568-1.037 16.397-3 4.671-1.898 8.457-4.616 10.948-7.86 1.562-2.035 2.6-4.25 3.088-6.586.51-2.447.412-5.024-.293-7.66-.54-2.02-.668-2.784-.98-4.63-.16-.95-.38-2.25-.737-4.206l-.023-.128-.05-.265-.025-.13-.052-.27-.024-.125c-.01-.042-.017-.084-.026-.126l-.028-.138-.03-.143a25.551 25.551 0 0 0-.054-.258l-.023-.11a14.951 14.951 0 0 1-.043-.19l-.01-.042-.011-.054-.02-.088-.021-.09c-.535-2.34-.89-3.718-1.096-4.47-.212-.598-2.271-5.771-4.819-11.523-4.43-10.004-6.038-12.014-6.424-12.391-.101-.099-.277-.114-.373-.114-.285 0-.598.123-.796.312-2.366 2.259-6.723 6.663-9.315 10.787-.882 1.402-2.49 2.273-4.199 2.273h-.046l-1.215-.006-.159.001-.137.001h-.124l-.041.001h-.166l-.137-.002-.16-.001-.086.001-1.128.005h-.046c-1.708 0-3.317-.87-4.2-2.273-2.59-4.124-6.948-8.528-9.314-10.786a1.21 1.21 0 0 0-.796-.313c-.096 0-.271.015-.372.113-.387.378-1.995 2.389-6.426 12.393-2.546 5.749-4.606 10.923-4.818 11.522-.21.767-.57 2.163-1.104 4.504l-.028.124-.024.108-.004.016-.06.272-.166.811-.052.27-.025.128-.037.197-.02.104-.016.093c-.358 1.957-.577 3.258-.737 4.208-.311 1.845-.44 2.61-.98 4.628-.704 2.636-.803 5.213-.292 7.66.486 2.335 1.525 4.55 3.087 6.585 2.491 3.244 6.277 5.963 10.948 7.861 4.83 1.963 10.5 3 16.399 3 .246 0 .485-.002.731-.005h.057c.244.003.49.005.732.005h.001m0 2.003c-.253 0-.507-.001-.761-.005-.255.004-.507.005-.76.005-20.532 0-36.278-11.912-32.077-27.626.786-2.943.637-2.965 1.681-8.68l.076-.408.023-.116.056-.293.026-.132.056-.278.027-.128.06-.291.002-.001.022-.106.045-.202.031-.137.012-.053c.094-.41.662-2.92 1.152-4.698.18-.652 8.68-21.762 11.764-24.772 1.059-1.032 2.887-.83 3.95.184 2.496 2.382 6.934 6.883 9.628 11.17.521.829 1.474 1.336 2.503 1.336h.036l.995-.005h.143l.04-.002c.115 0 .23.002.343.003l.166.001.165-.001c.114-.001.228-.003.343-.003l.04.002h.143l.995.005h.036c1.028 0 1.982-.508 2.503-1.336 2.694-4.287 7.132-8.788 9.628-11.17 1.063-1.014 2.892-1.216 3.95-.184 3.085 3.01 11.584 24.12 11.764 24.772.49 1.778 1.058 4.287 1.152 4.698l.012.053.031.137.045.202.023.107.061.291.027.128.056.278.026.132.056.293.023.116.076.408c1.044 5.715.895 5.737 1.682 8.68 4.2 15.715-11.544 27.627-32.077 27.626z" style="fill:#191919;stroke:none"/>
                        </g>
                    </g>
                </g>
            </g>
            <g data-name="그룹 4622">
                <g data-name="그룹 4620">
                    <path data-name="패스 3900" d="M7633.881 2070.862a3.772 3.772 0 0 1-7.545 0c0-2.084 1.689-1.625 3.772-1.625s3.773-.459 3.773 1.625z" style="fill:#eda400"/>
                </g>
                <g data-name="그룹 4621">
                    <path data-name="패스 3901" d="M7658.921 2070.862a3.772 3.772 0 0 1-7.545 0c0-2.084 1.689-1.625 3.773-1.625s3.772-.459 3.772 1.625z" style="fill:#eda400"/>
                </g>
            </g>
            <g data-name="그룹 4624">
                <path data-name="패스 3902" d="M7644.8 2078.151a2.167 2.167 0 0 1-4.335 0c0-1.2.971-1.243 2.168-1.243s2.167.046 2.167 1.243z" style="fill:#fff"/>
                <g data-name="그룹 4623">
                    <path data-name="패스 3903" d="M7633.94 2085.79s8.162 1.845 8.756-5.472" style="stroke-width:1.765px;stroke:#fff;stroke-linecap:round;stroke-miterlimit:10;fill:none"/>
                    <path data-name="패스 3904" d="M7651.317 2085.79s-8.161 1.845-8.756-5.472" style="stroke-width:1.765px;stroke:#fff;stroke-linecap:round;stroke-miterlimit:10;fill:none"/>
                </g>
            </g>
            <g data-name="그룹 4627">
                <g data-name="그룹 4625">
                    <path data-name="선 64" transform="translate(7614.545 2079.065)" style="stroke-width:1.142px;stroke:#fff;stroke-linecap:round;stroke-miterlimit:10;fill:none" d="m0 0 7.743 1.388"/>
                    <path data-name="선 65" transform="translate(7614.689 2085.829)" style="stroke-width:1.142px;stroke:#fff;stroke-linecap:round;stroke-miterlimit:10;fill:none" d="M7.743 0 0 1.388"/>
                    <path data-name="선 66" transform="translate(7614.469 2083.059)" style="stroke-width:1.142px;stroke:#fff;stroke-linecap:round;stroke-miterlimit:10;fill:none" d="M0 0h7.674"/>
                </g>
                <g data-name="그룹 4626">
                    <path data-name="선 67" transform="translate(7662.969 2079.065)" style="stroke-width:1.142px;stroke:#fff;stroke-linecap:round;stroke-miterlimit:10;fill:none" d="M7.743 0 0 1.388"/>
                    <path data-name="선 68" transform="translate(7662.825 2085.829)" style="stroke-width:1.142px;stroke:#fff;stroke-linecap:round;stroke-miterlimit:10;fill:none" d="m0 0 7.743 1.388"/>
                    <path data-name="선 69" transform="translate(7663.114 2083.059)" style="stroke-width:1.142px;stroke:#fff;stroke-linecap:round;stroke-miterlimit:10;fill:none" d="M7.674 0H0"/>
                </g>
            </g>
        </g>
    </g>
</svg>
