<svg xmlns="http://www.w3.org/2000/svg" width="100" height="100" viewBox="0 0 100 100">
    <g transform="translate(-2269.391 -613.589)">
        <circle data-name="타원 1776" cx="50" cy="50" r="50" transform="translate(2269.391 613.589)" style="fill:#7ad4fc"/>
        <ellipse data-name="타원 1777" cx="24.12" cy="8.004" rx="24.12" ry="8.004" transform="translate(2295.612 684.76)" style="fill:#52adc6"/>
        <g data-name="그룹 4651">
            <g data-name="그룹 4650">
                <path data-name="패스 3928" d="m2339.326 637.123.3-1.563a.7.7 0 0 0-.889-.795l-1.446.447a7.906 7.906 0 0 1-4.932-.086l-2.695-.937a7.9 7.9 0 0 0-4.906-.094l-3.1.948a7.912 7.912 0 0 1-4.685-.021l-3.031-.955a7.9 7.9 0 0 0-5.246.175l-1.631.636a7.9 7.9 0 0 1-4.628.341l-2.456-.56a.7.7 0 0 0-.839.809l.315 1.655a8.554 8.554 0 0 1-3.247 8.443c-7.134 5.354-11.625 13.14-11.625 21.808 0 16.148 15.154 26.1 34.378 26.1s35.238-9.953 35.238-26.1c0-8.668-4.491-16.454-11.625-21.808a8.555 8.555 0 0 1-3.25-8.443z" style="stroke-width:2.076px;stroke-miterlimit:10;stroke:#76bbff;fill:#fff"/>
                <path data-name="패스 3929" d="M2296.208 645.566c-7.134 5.354-11.625 13.14-11.625 21.808 0 16.148 15.154 26.1 34.378 26.1s35.238-9.953 35.238-26.1c0-8.668-4.491-16.454-11.625-21.808a8.489 8.489 0 0 1-2.562-3.132 63.825 63.825 0 0 0-20.8 0c-12.737 2.121-20.445 0-20.445 0a8.477 8.477 0 0 1-2.559 3.132z" style="fill:#b3e4ff"/>
                <g data-name="그룹 4649">
                    <g data-name="그룹 4647">
                        <g data-name="패스 3930" style="fill:#ffa350;stroke-miterlimit:10">
                            <path d="M2314.464 682.644a16.555 16.555 0 0 1-11.783-4.88 16.554 16.554 0 0 1-4.881-11.784c0-4.451 1.733-8.636 4.88-11.783a16.555 16.555 0 0 1 11.784-4.881c4.708 0 10.55 1.941 15.247 5.067 2.422 1.611 4.426 3.48 5.796 5.403 1.48 2.079 2.23 4.2 2.23 6.305 0 2.102-.749 4.21-2.228 6.267-1.366 1.9-3.369 3.742-5.79 5.326-4.679 3.06-10.524 4.96-15.255 4.96z" style="stroke:none"/>
                            <path d="M2314.464 650.354a15.524 15.524 0 0 0-11.05 4.577 15.524 15.524 0 0 0-4.576 11.049c0 4.174 1.625 8.098 4.577 11.05a15.524 15.524 0 0 0 11.05 4.576c2.19 0 4.709-.44 7.284-1.273a31.309 31.309 0 0 0 7.401-3.518c2.317-1.515 4.224-3.265 5.517-5.063 1.349-1.876 2.033-3.78 2.033-5.661 0-1.884-.686-3.803-2.04-5.703-1.295-1.821-3.206-3.599-5.524-5.141a31.29 31.29 0 0 0-7.4-3.59c-2.577-.852-5.091-1.303-7.272-1.303m0-2.076c9.777 0 24.312 8.037 24.312 17.813 0 9.777-14.535 17.591-24.312 17.591-9.777 0-17.702-7.925-17.702-17.702 0-9.777 7.925-17.702 17.702-17.702z" style="fill:#ff8431;stroke:none"/>
                        </g>
                        <g data-name="패스 3931" style="fill:#ff8431;stroke-miterlimit:10">
                            <path d="M2345.171 673.623a6.077 6.077 0 0 1-4.25-1.721 6.075 6.075 0 0 1-1.712-5.715v-.003l.001-.003a4.101 4.101 0 0 0 0-1.763v-.003l-.001-.003a6.075 6.075 0 0 1 1.712-5.715 6.077 6.077 0 0 1 4.25-1.721c.344 0 .69.029 1.029.086a6.13 6.13 0 0 1-1.802 5.224l-.01.01-.011.011-.008.008a4.13 4.13 0 0 0-1.265 2.984 4.13 4.13 0 0 0 1.28 3l.007.006.007.007.008.008a6.13 6.13 0 0 1 1.794 5.217 6.17 6.17 0 0 1-1.029.086z" style="stroke:none"/>
                            <path d="M2343.88 671.292a3.981 3.981 0 0 0-.94-1.444l-.023-.022a6.321 6.321 0 0 1-1.7-2.85 3.965 3.965 0 0 0 1.178 3.405 3.98 3.98 0 0 0 1.486.911m-2.664-7.67a6.324 6.324 0 0 1 1.665-2.815l.043-.042c.427-.414.75-.914.955-1.458a3.982 3.982 0 0 0-1.485.911 3.965 3.965 0 0 0-1.178 3.404m3.954 12.119a8.199 8.199 0 0 1-5.723-2.318 8.219 8.219 0 0 1-2.307-7.694 2.014 2.014 0 0 0 0-.859 8.219 8.219 0 0 1 2.307-7.694 8.216 8.216 0 0 1 7.223-2.181 1.999 1.999 0 0 1 1.61 1.662 8.218 8.218 0 0 1-2.409 7.15l-.019.019a2.035 2.035 0 0 0 0 2.947l.02.018a8.22 8.22 0 0 1 2.408 7.151 2 2 0 0 1-1.61 1.662 8.27 8.27 0 0 1-1.5.137z" style="fill:#ff8431;stroke:none"/>
                        </g>
                        <path data-name="패스 3932" d="M2307.214 663.2c0 1.312-1.216 1.322-2.529 1.322s-2.225-.01-2.225-1.322a2.377 2.377 0 0 1 4.754 0z" style="fill:#933012"/>
                        <path data-name="패스 3933" d="M2316.929 663.2c0 1.312-1.215 1.322-2.528 1.322s-2.225-.01-2.225-1.322a2.376 2.376 0 1 1 4.753 0z" style="fill:#933012"/>
                        <path data-name="패스 3934" d="M2304.616 667.483s4.325 4.586 9.938-.155" style="stroke-linecap:round;stroke:#933012;stroke-width:.93px;fill:none;stroke-miterlimit:10"/>
                    </g>
                    <g data-name="그룹 4648">
                        <path data-name="패스 3935" d="M2320.782 659.484s5.386 4.617 0 11.981" style="stroke:#ff8431;stroke-width:1.349px;stroke-linecap:round;fill:none;stroke-miterlimit:10"/>
                        <path data-name="패스 3936" d="M2325.478 667.117h-2.978v-3.879h2.977c2.166 0 2.166 3.879.001 3.879z" style="fill:#ff8431"/>
                    </g>
                </g>
                <circle data-name="타원 1778" cx="2.139" cy="2.139" r="2.139" transform="translate(2292.662 653.275)" style="fill:#fff"/>
                <circle data-name="타원 1779" cx="2.139" cy="2.139" r="2.139" transform="translate(2336.713 676.542)" style="fill:#fff"/>
            </g>
            <path data-name="패스 3937" d="m2339.326 637.123.3-1.563a.7.7 0 0 0-.889-.795l-1.446.447a7.906 7.906 0 0 1-4.932-.086l-2.695-.937a7.9 7.9 0 0 0-4.906-.094l-3.1.948a7.912 7.912 0 0 1-4.685-.021l-3.031-.955a7.9 7.9 0 0 0-5.246.175l-1.631.636a7.9 7.9 0 0 1-4.628.341l-2.456-.56a.7.7 0 0 0-.839.809l.315 1.655a8.554 8.554 0 0 1-3.247 8.443c-7.134 5.354-11.625 13.14-11.625 21.808 0 16.148 15.154 26.1 34.378 26.1s35.238-9.953 35.238-26.1c0-8.668-4.491-16.454-11.625-21.808a8.555 8.555 0 0 1-3.25-8.443z" style="stroke:#73b3ff;fill:none;stroke-width:2.076px;stroke-miterlimit:10"/>
        </g>
    </g>
</svg>
