<svg xmlns="http://www.w3.org/2000/svg" width="100" height="100" viewBox="0 0 100 100">
    <defs>
        <filter id="kb9iwdwgnc" x="11.693" y="18.081" width="76.87" height="86.896" filterUnits="userSpaceOnUse">
            <feOffset dx="2" dy="1"/>
            <feGaussianBlur stdDeviation="1" result="blur"/>
            <feFlood flood-color="#fff" flood-opacity=".29" result="color"/>
            <feComposite operator="out" in="SourceGraphic" in2="blur"/>
            <feComposite operator="in" in="color"/>
            <feComposite operator="in" in2="SourceGraphic"/>
        </filter>
        <filter id="nasmcbzknd" x="43.578" y="67.345" width="13.101" height="7.753" filterUnits="userSpaceOnUse">
            <feOffset dx=".5" dy=".5"/>
            <feGaussianBlur stdDeviation=".25" result="blur-2"/>
            <feFlood flood-opacity=".204" result="color-2"/>
            <feComposite operator="out" in="SourceGraphic" in2="blur-2"/>
            <feComposite operator="in" in="color-2"/>
            <feComposite operator="in" in2="SourceGraphic"/>
        </filter>
        <linearGradient id="gsmgx7srqb" x1=".17" x2=".876" y2=".869" gradientUnits="objectBoundingBox">
            <stop offset="0" stop-color="#b85dee"/>
            <stop offset="1" stop-color="#743ed7"/>
        </linearGradient>
        <clipPath id="30hf6j9zma">
            <circle data-name="타원 1995" cx="50" cy="50" r="50" style="stroke:#707070;fill:#fff"/>
        </clipPath>
    </defs>
    <g>
        <circle data-name="타원 1996" cx="50" cy="50" r="50" style="fill:#eee5ff"/>
        <g data-name="마스크 그룹 39" style="clip-path:url(#30hf6j9zma)">
            <g data-type="innerShadowGroup">
                <path data-name="빼기 2" d="M39.064 86.9h-1.255v-.014c-14.24-.329-23.2-6.2-28.208-11.067A35.152 35.152 0 0 1 2.763 66.6 22.721 22.721 0 0 1 .24 58.433C-.462 48.969.5 27.57 1.46 19.655A27.709 27.709 0 0 1 6.55 6.9C8.913 3.753 13.058 0 19.389 0a16.984 16.984 0 0 1 1.927.112C26.738.734 30.7 3.142 33.1 7.27a21.154 21.154 0 0 1 2.552 9.553c.166 3.144.634 11.452.9 16.124v1.938a1.89 1.89 0 0 0 3.781 0v-1.938c.263-4.666.73-12.965.9-16.124a21.145 21.145 0 0 1 2.541-9.553C46.169 3.142 50.132.734 55.554.113A16.984 16.984 0 0 1 57.481 0c6.331 0 10.477 3.753 12.839 6.9a27.715 27.715 0 0 1 5.09 12.753c.955 7.91 1.92 29.306 1.219 38.777-.337 4.549-2.763 11.51-8.557 17.4a34.492 34.492 0 0 1-11.447 7.639 48.094 48.094 0 0 1-17.562 3.408v.023z" transform="translate(11.693 18.08)" style="fill:url(#gsmgx7srqb)"/>
                <g style="filter:url(#kb9iwdwgnc)">
                    <path data-name="빼기 2" d="M39.064 86.9h-1.255v-.014c-14.24-.329-23.2-6.2-28.208-11.067A35.152 35.152 0 0 1 2.763 66.6 22.721 22.721 0 0 1 .24 58.433C-.462 48.969.5 27.57 1.46 19.655A27.709 27.709 0 0 1 6.55 6.9C8.913 3.753 13.058 0 19.389 0a16.984 16.984 0 0 1 1.927.112C26.738.734 30.7 3.142 33.1 7.27a21.154 21.154 0 0 1 2.552 9.553c.166 3.144.634 11.452.9 16.124v1.938a1.89 1.89 0 0 0 3.781 0v-1.938c.263-4.666.73-12.965.9-16.124a21.145 21.145 0 0 1 2.541-9.553C46.169 3.142 50.132.734 55.554.113A16.984 16.984 0 0 1 57.481 0c6.331 0 10.477 3.753 12.839 6.9a27.715 27.715 0 0 1 5.09 12.753c.955 7.91 1.92 29.306 1.219 38.777-.337 4.549-2.763 11.51-8.557 17.4a34.492 34.492 0 0 1-11.447 7.639 48.094 48.094 0 0 1-17.562 3.408v.023z" transform="translate(11.693 18.08)" style="fill:#fff"/>
                </g>
            </g>
            <g data-type="innerShadowGroup">
                <g data-name="합치기 201" style="fill:#44236c">
                    <path d="M5.982 7.346A6.13 6.13 0 0 1 .91 4.695a5.685 5.685 0 0 1-.9-2.463A1.979 1.979 0 0 1 .61.641 2.294 2.294 0 0 1 2.214 0h.071l8.272.25a2.272 2.272 0 0 1 1.693.814 1.953 1.953 0 0 1 .387 1.736 6.4 6.4 0 0 1-6.321 4.553c-.116 0-.222-.003-.334-.007z" style="stroke:none" transform="translate(43.778 67.545)"/>
                    <path d="M6.316 7.353c4.053 0 5.907-2.978 6.32-4.553a1.953 1.953 0 0 0-.386-1.737A2.272 2.272 0 0 0 10.557.25L2.285.002A2.294 2.294 0 0 0 .61.642a1.979 1.979 0 0 0-.603 1.59c.02.21.15 1.315.903 2.463 1.063 1.62 2.865 2.562 5.072 2.651.112.004.223.007.334.007m0 .2c-.098 0-.203-.002-.34-.007C3.7 7.454 1.842 6.481.742 4.805-.033 3.622-.172 2.469-.192 2.25A2.18 2.18 0 0 1 .471.498a2.506 2.506 0 0 1 1.822-.696l8.27.248c.729.022 1.4.345 1.842.887.446.547.6 1.245.425 1.913-.427 1.627-2.338 4.703-6.514 4.703z" style="stroke:none" transform="translate(43.778 67.545)"/>
                </g>
                <g style="filter:url(#nasmcbzknd)">
                    <g data-name="합치기 201" style="fill:#fff" transform="translate(.003)">
                        <path d="M5.982 7.346A6.13 6.13 0 0 1 .91 4.695a5.685 5.685 0 0 1-.9-2.463A1.979 1.979 0 0 1 .61.641 2.294 2.294 0 0 1 2.214 0h.071l8.272.25a2.272 2.272 0 0 1 1.693.814 1.953 1.953 0 0 1 .387 1.736 6.4 6.4 0 0 1-6.321 4.553c-.116 0-.222-.003-.334-.007z" style="stroke:none" transform="translate(43.78 67.55)"/>
                        <path d="M6.316 7.353c4.053 0 5.907-2.978 6.32-4.553a1.953 1.953 0 0 0-.386-1.737A2.272 2.272 0 0 0 10.557.25L2.285.002A2.294 2.294 0 0 0 .61.642a1.979 1.979 0 0 0-.603 1.59c.02.21.15 1.315.903 2.463 1.063 1.62 2.865 2.562 5.072 2.651.112.004.223.007.334.007m0 .2c-.098 0-.203-.002-.34-.007C3.7 7.454 1.842 6.481.742 4.805-.033 3.622-.172 2.469-.192 2.25A2.18 2.18 0 0 1 .471.498a2.506 2.506 0 0 1 1.822-.696l8.27.248c.729.022 1.4.345 1.842.887.446.547.6 1.245.425 1.913-.427 1.627-2.338 4.703-6.514 4.703z" style="stroke:none" transform="translate(43.78 67.55)"/>
                    </g>
                </g>
                <g data-name="합치기 201" style="stroke-linecap:round;stroke-linejoin:round;fill:none">
                    <path d="M5.982 7.346A6.13 6.13 0 0 1 .91 4.695a5.685 5.685 0 0 1-.9-2.463A1.979 1.979 0 0 1 .61.641 2.294 2.294 0 0 1 2.214 0h.071l8.272.25a2.272 2.272 0 0 1 1.693.814 1.953 1.953 0 0 1 .387 1.736 6.4 6.4 0 0 1-6.321 4.553c-.116 0-.222-.003-.334-.007z" style="stroke:none" transform="translate(43.778 67.545)"/>
                    <path d="M6.316 7.353c4.053 0 5.907-2.978 6.32-4.553a1.953 1.953 0 0 0-.386-1.737A2.272 2.272 0 0 0 10.557.25L2.285.002A2.294 2.294 0 0 0 .61.642a1.979 1.979 0 0 0-.603 1.59c.02.21.15 1.315.903 2.463 1.063 1.62 2.865 2.562 5.072 2.651.112.004.223.007.334.007m0 .2c-.098 0-.203-.002-.34-.007C3.7 7.454 1.842 6.481.742 4.805-.033 3.622-.172 2.469-.192 2.25A2.18 2.18 0 0 1 .471.498a2.506 2.506 0 0 1 1.822-.696l8.27.248c.729.022 1.4.345 1.842.887.446.547.6 1.245.425 1.913-.427 1.627-2.338 4.703-6.514 4.703z" style="fill:rgba(255,255,255,.16);stroke:none" transform="translate(43.778 67.545)"/>
                </g>
            </g>
            <g data-name="사각형 7267" transform="rotate(-7 492.926 -468.295)" style="stroke:rgba(255,255,255,.29);stroke-width:.2px">
                <rect width="9.37" height="3.123" rx="1.562" style="stroke:none"/>
                <rect x="-.1" y="-.1" width="9.57" height="3.323" rx="1.662" style="fill:none"/>
            </g>
            <g data-name="사각형 7268" transform="rotate(8 -380.309 250.128)" style="stroke:rgba(255,255,255,.29);stroke-width:.2px">
                <rect width="9.37" height="3.123" rx="1.562" style="stroke:none"/>
                <rect x="-.1" y="-.1" width="9.57" height="3.323" rx="1.662" style="fill:none"/>
            </g>
        </g>
        <g data-name="그룹 20181" transform="translate(27.371 61.661)">
            <circle data-name="타원 1934" cx="6.926" cy="6.926" r="6.926" transform="translate(31.663)" style="fill:#fff"/>
            <circle data-name="타원 1935" cx="6.926" cy="6.926" r="6.926" style="fill:#fff"/>
            <circle data-name="타원 1936" cx="4.288" cy="4.288" r="4.288" transform="translate(35.62 2.639)"/>
            <circle data-name="타원 1937" cx="4.288" cy="4.288" r="4.288" transform="translate(3.958 2.639)"/>
        </g>
    </g>
</svg>
