<svg xmlns="http://www.w3.org/2000/svg" width="100" height="100" viewBox="0 0 100 100">
    <defs>
        <clipPath id="ow3ext5fra">
            <circle data-name="타원 1751" cx="50" cy="50" r="50" transform="translate(7592.091 2025.868)" style="fill:none"/>
        </clipPath>
    </defs>
    <g transform="translate(-7592.091 -2025.868)">
        <circle data-name="타원 1746" cx="50" cy="50" r="50" transform="translate(7592.091 2025.868)" style="fill:#774cd7"/>
        <g data-name="그룹 4599">
            <g data-name="그룹 4598" style="clip-path:url(#ow3ext5fra)">
                <g data-name="그룹 4597">
                    <g data-name="그룹 4596">
                        <path data-name="사각형 3447" d="M36.568 0a36.568 36.568 0 0 1 36.567 36.568v21.849a14.718 14.718 0 0 1-14.718 14.718h-43.7A14.718 14.718 0 0 1 0 58.417V36.568A36.568 36.568 0 0 1 36.568 0z" transform="translate(7605.523 2085.006)" style="fill:#ff8431"/>
                        <g data-name="그룹 4595">
                            <g data-name="패스 3871" style="stroke-miterlimit:10;fill:#ffa350">
                                <path d="M7642.85 2104.985c-.246 0-.496-.002-.743-.006h-.032c-.25.004-.494.006-.744.006-5.804 0-11.42-1.066-16.241-3.082-4.711-1.97-8.618-4.825-11.299-8.254-3.856-4.934-5.077-10.829-3.53-17.046.8-3.21.8-3.21 1.702-9.423.41-2.813.688-6.047-1.188-8.833a8.772 8.772 0 0 1-1.5-5.038c.062-4.798 4.019-8.702 8.821-8.702h.13a8.783 8.783 0 0 1 5.987 2.47 8.551 8.551 0 0 0 8.335 2.072 35.999 35.999 0 0 1 8.187-1.365l.03-.002.03-.003a7.34 7.34 0 0 1 .787-.043l.362.003.135.002h.024l.135-.002c.12-.001.241-.003.362-.003.26 0 .525.014.787.043l.03.003.03.002c2.794.141 5.549.6 8.187 1.365a8.555 8.555 0 0 0 8.334-2.073 8.783 8.783 0 0 1 6.118-2.47c4.803 0 8.759 3.905 8.82 8.703a8.756 8.756 0 0 1-1.498 5.037c-1.877 2.786-1.598 6.02-1.19 8.834.903 6.212.903 6.212 1.703 9.423 1.547 6.218.327 12.113-3.53 17.046-2.68 3.43-6.587 6.284-11.298 8.254-4.822 2.016-10.439 3.082-16.242 3.082z" style="stroke:none"/>
                                <path d="M7666.083 2043.569v2.076h-.11a7.746 7.746 0 0 0-5.284 2.179 9.587 9.587 0 0 1-6.685 2.7c-.9 0-1.796-.127-2.659-.378a34.932 34.932 0 0 0-7.951-1.325l-.06-.004-.06-.006a6.222 6.222 0 0 0-.674-.037l-.34.003-.17.002-.169-.002a26.134 26.134 0 0 0-.339-.003c-.223 0-.45.012-.673.037l-.06.006-.06.004c-2.715.137-5.39.583-7.952 1.325a9.55 9.55 0 0 1-2.66.378 9.583 9.583 0 0 1-6.684-2.7 7.748 7.748 0 0 0-5.397-2.18c-4.237 0-7.728 3.445-7.783 7.678a7.741 7.741 0 0 0 1.323 4.445c.944 1.402 1.473 2.998 1.619 4.879.127 1.648-.062 3.292-.265 4.684-.893 6.145-.91 6.263-1.721 9.524-1.468 5.896-.313 11.482 3.34 16.156 2.571 3.29 6.334 6.033 10.881 7.935 4.696 1.964 10.174 3.002 15.841 3.002.245 0 .483-.002.728-.006h.064c.241.004.486.006.728.006 5.668 0 11.145-1.038 15.841-3.002 4.548-1.901 8.31-4.645 10.882-7.935 3.652-4.673 4.807-10.26 3.34-16.156-.812-3.261-.83-3.378-1.723-9.524-.202-1.392-.391-3.037-.264-4.684.145-1.881.675-3.477 1.62-4.88a7.728 7.728 0 0 0 1.321-4.444c-.054-4.233-3.545-7.677-7.783-7.677l-.002-2.076m-47.987 0h.144a9.822 9.822 0 0 1 6.694 2.76 7.54 7.54 0 0 0 7.325 1.823 36.97 36.97 0 0 1 8.424-1.405c.295-.032.594-.049.899-.049.17 0 .34.003.509.005.169-.002.34-.005.51-.005.304 0 .603.017.898.05 2.925.147 5.749.629 8.424 1.404a7.543 7.543 0 0 0 7.325-1.823 9.82 9.82 0 0 1 6.838-2.76c5.357 0 9.79 4.353 9.858 9.727a9.801 9.801 0 0 1-1.676 5.631c-1.612 2.393-1.437 5.249-1.022 8.104.895 6.16.895 6.16 1.682 9.321 4.2 16.877-11.545 29.67-32.077 29.67-.253 0-.506-.001-.76-.005-.256.004-.506.006-.76.006-20.531 0-36.277-12.794-32.077-29.67.786-3.161.786-3.161 1.682-9.322.415-2.855.59-5.71-1.022-8.104a9.813 9.813 0 0 1-1.677-5.631c.07-5.374 4.5-9.727 9.86-9.727z" style="fill:#ff8431;stroke:none"/>
                            </g>
                            <circle data-name="타원 1747" cx="2.167" cy="2.167" r="2.167" transform="translate(7628.848 2070.367)" style="fill:#7f3f0f"/>
                            <path data-name="패스 3872" d="M7644.078 2076.143a2.167 2.167 0 1 1-4.335 0c0-1.2.971-1.243 2.168-1.243s2.167.046 2.167 1.243z" style="fill:#7f3f0f"/>
                            <circle data-name="타원 1748" cx="2.167" cy="2.167" r="2.167" transform="translate(7649.831 2070.367)" style="fill:#7f3f0f"/>
                            <circle data-name="타원 1749" cx="3.247" cy="3.247" r="3.247" transform="translate(7615.164 2050.194)" style="fill:#fff"/>
                            <circle data-name="타원 1750" cx="3.247" cy="3.247" r="3.247" transform="translate(7662.793 2050.194)" style="fill:#fff"/>
                            <path data-name="패스 3873" d="M7634.662 2053.815a23.519 23.519 0 0 1 14.687-.1" style="stroke:#7f3f0f;stroke-linecap:round;stroke-width:1.765px;stroke-miterlimit:10;fill:none"/>
                            <path data-name="패스 3874" d="M7634.662 2058.181a23.519 23.519 0 0 1 14.687-.1" style="stroke:#7f3f0f;stroke-linecap:round;stroke-width:1.765px;stroke-miterlimit:10;fill:none"/>
                            <path data-name="선 59" transform="translate(7642.006 2048.556)" style="stroke:#7f3f0f;stroke-linecap:round;stroke-width:1.765px;stroke-miterlimit:10;fill:none" d="m0 0 .099 12.901"/>
                            <path data-name="패스 3875" d="M7617.013 2083.456a16.078 16.078 0 0 0 5.369 8.713" style="stroke:#7f3f0f;stroke-linecap:round;stroke-width:1.765px;stroke-miterlimit:10;fill:none"/>
                            <path data-name="패스 3876" d="M7613.944 2085.19a16.077 16.077 0 0 0 5.368 8.713" style="stroke:#7f3f0f;stroke-linecap:round;stroke-width:1.765px;stroke-miterlimit:10;fill:none"/>
                            <path data-name="패스 3877" d="M7666.538 2083.456a16.076 16.076 0 0 1-5.368 8.713" style="stroke:#7f3f0f;stroke-linecap:round;stroke-width:1.765px;stroke-miterlimit:10;fill:none"/>
                            <path data-name="패스 3878" d="M7669.608 2085.19a16.081 16.081 0 0 1-5.368 8.713" style="stroke:#7f3f0f;stroke-linecap:round;stroke-width:1.765px;stroke-miterlimit:10;fill:none"/>
                            <path data-name="선 60" transform="translate(7636.688 2085.701)" style="stroke:#7f3f0f;stroke-linecap:round;stroke-width:1.765px;stroke-miterlimit:10;fill:none" d="M0 3.507 12.181 0"/>
                            <g data-name="패스 3879" style="stroke-miterlimit:10;fill:none">
                                <path d="M7672.987 2067.031c-.415-2.855-.591-5.711 1.022-8.1a9.857 9.857 0 0 0-15.02-12.6 7.541 7.541 0 0 1-7.325 1.823 36.986 36.986 0 0 0-8.424-1.405 8.354 8.354 0 0 0-.9-.049c-.17 0-.339 0-.508.005s-.339-.005-.509-.005a8.336 8.336 0 0 0-.9.049 36.973 36.973 0 0 0-8.424 1.405 7.541 7.541 0 0 1-7.325-1.823 9.858 9.858 0 0 0-15.021 12.6c1.613 2.393 1.437 5.249 1.023 8.1a66.681 66.681 0 0 1-1.682 9.321c-4.253 17.085 11.934 29.985 32.837 29.665 20.9.32 37.089-12.58 32.837-29.665a66.285 66.285 0 0 1-1.681-9.321z" style="stroke:none"/>
                                <path d="M7665.824 2043.569v2.076h-.11a7.747 7.747 0 0 0-5.284 2.179 9.587 9.587 0 0 1-6.684 2.7c-.901 0-1.796-.127-2.66-.378a34.94 34.94 0 0 0-7.95-1.325l-.06-.004-.06-.006a6.258 6.258 0 0 0-.676-.037c-.113 0-.226.002-.338.003l-.17.002-.171-.002c-.113-.001-.225-.003-.338-.003-.226 0-.447.012-.674.037l-.06.006-.06.004c-2.715.137-5.39.583-7.95 1.325a9.55 9.55 0 0 1-2.661.378 9.585 9.585 0 0 1-6.685-2.7 7.745 7.745 0 0 0-5.396-2.18c-4.237 0-7.729 3.445-7.783 7.679a7.74 7.74 0 0 0 1.321 4.444c.945 1.401 1.475 2.997 1.62 4.879.128 1.646-.062 3.29-.264 4.684-.894 6.145-.91 6.263-1.721 9.524-1.468 5.896-.313 11.482 3.34 16.155 2.57 3.29 6.334 6.034 10.881 7.936 4.696 1.964 10.174 3.002 15.841 3.002.245 0 .483-.002.728-.006h.064c.241.004.486.006.728.006 5.667 0 11.145-1.038 15.841-3.002 4.547-1.901 8.31-4.645 10.881-7.935 3.653-4.673 4.808-10.26 3.34-16.156-.812-3.261-.829-3.378-1.722-9.524-.202-1.392-.391-3.037-.265-4.684.145-1.882.676-3.478 1.62-4.88a7.738 7.738 0 0 0 1.322-4.444c-.053-4.233-3.545-7.677-7.782-7.677l-.003-2.076m-47.987 0h.144a9.82 9.82 0 0 1 6.694 2.76 7.54 7.54 0 0 0 7.325 1.823 36.966 36.966 0 0 1 8.424-1.405c.295-.032.594-.049.9-.049.17 0 .338.003.508.005.169-.002.338-.005.508-.005.305 0 .605.017.9.05a36.98 36.98 0 0 1 8.424 1.404 7.543 7.543 0 0 0 7.325-1.823 9.822 9.822 0 0 1 6.838-2.76c5.357 0 9.79 4.353 9.858 9.727a9.813 9.813 0 0 1-1.676 5.631c-1.613 2.393-1.437 5.249-1.022 8.104.895 6.16.895 6.16 1.682 9.321 4.2 16.877-11.545 29.67-32.077 29.67-.253 0-.506-.001-.76-.005-.255.004-.506.006-.76.006-20.531 0-36.278-12.794-32.077-29.67.786-3.161.786-3.161 1.682-9.322.414-2.855.59-5.71-1.023-8.104a9.816 9.816 0 0 1-1.676-5.631c.07-5.374 4.5-9.727 9.859-9.727z" style="fill:#ff8431;stroke:none"/>
                            </g>
                            <path data-name="패스 3880" d="M7669.442 2072.285v-.146c0-.12-.011-.239-.019-.358 0-.035-.006-.07-.008-.106a25.556 25.556 0 0 0-.023-.263c0-.035-.007-.07-.011-.1-.012-.11-.024-.219-.039-.328v-.025c-.016-.118-.035-.236-.054-.354l-.015-.087q-.024-.137-.051-.272l-.018-.092a11.593 11.593 0 0 0-.071-.323v-.02a14.085 14.085 0 0 0-.089-.354l-.016-.056c-.026-.1-.054-.2-.083-.293l-.021-.069a10.712 10.712 0 0 0-.232-.688l-.006-.015c-.04-.108-.082-.216-.125-.322l-.017-.042q-.212-.515-.466-1l-.008-.016a12.47 12.47 0 0 0-.369-.659 1.51 1.51 0 0 1 .347-1.935l.139-.133a1.007 1.007 0 0 0-1.384-1.463l-.165.154a1.505 1.505 0 0 1-1.88.027 12.42 12.42 0 0 0-1.61-1.084q-.207-.117-.418-.225l-.019-.01q-.425-.218-.865-.4h-.009c-.142-.06-.285-.116-.43-.171l-.043-.016c-.144-.053-.288-.1-.434-.152l-.022-.007c-.148-.048-.3-.094-.447-.136h-.012q-.219-.062-.441-.116l-.063-.015-.436-.1-.057-.011a10.973 10.973 0 0 0-.905-.142l-.076-.009c-.146-.016-.293-.03-.44-.041h-.081a11.25 11.25 0 0 0-.449-.024H7656.625l-.147.007-.139.007-.154.011-.131.009-.155.015-.128.012-.154.018-.128.016-.153.021-.126.018-.157.026-.12.02-.159.03-.116.022-.159.033-.114.025-.163.038-.108.025-.164.043-.1.027-.168.048-.1.028-.171.053-.093.028-.175.059-.086.028-.177.064-.081.029-.181.07-.075.028-.184.076-.069.028-.189.082-.061.027-.2.091-.051.023-.195.1-.05.024-.21.109-.031.016-.207.113-.031.017c-.073.04-.144.082-.216.124l-.019.011c-.075.044-.149.089-.222.134l-.01.006a12.4 12.4 0 0 0-5.675 8.277 1.233 1.233 0 0 1-.077.255c-.008.02-.018.039-.027.058l-.025.051a1.184 1.184 0 0 1-1.358.562 6.7 6.7 0 0 0-3.151 0 1.183 1.183 0 0 1-1.358-.562l-.025-.051a.634.634 0 0 1-.028-.058 1.174 1.174 0 0 1-.076-.255 12.4 12.4 0 0 0-5.447-8.132c-.074-.048-.149-.1-.224-.142l-.01-.006a9.991 9.991 0 0 0-.221-.134l-.026-.015c-.069-.04-.139-.081-.209-.12l-.037-.02a44.044 44.044 0 0 0-.2-.11l-.035-.019-.206-.106-.054-.026-.19-.094-.056-.025c-.064-.03-.127-.06-.192-.089l-.063-.028c-.062-.027-.124-.055-.187-.081l-.069-.028-.184-.076-.075-.029-.18-.069-.084-.03-.175-.063-.088-.029-.173-.058-.1-.029-.169-.052-.1-.029-.167-.047-.1-.027-.164-.043-.108-.025-.163-.038-.114-.025-.159-.033-.117-.022c-.052-.01-.1-.021-.158-.03l-.12-.02-.157-.026-.125-.018c-.052-.007-.1-.015-.154-.021l-.128-.016-.153-.018-.129-.012-.155-.015-.13-.009-.154-.011-.139-.007-.148-.007h-.876c-.15.005-.3.013-.449.024h-.08q-.222.016-.441.041l-.076.009c-.151.018-.3.038-.452.062-.152.024-.3.051-.453.08l-.057.011c-.146.03-.292.062-.436.1l-.063.015q-.222.054-.441.116h-.012c-.15.042-.3.088-.447.136l-.022.007c-.146.048-.29.1-.434.152l-.043.016c-.144.055-.288.111-.43.171h-.008q-.442.186-.866.4l-.019.01q-.212.108-.418.225a12.492 12.492 0 0 0-1.61 1.084 1.505 1.505 0 0 1-1.88-.027l-.165-.154a1.007 1.007 0 0 0-1.384 1.463l.14.133a1.511 1.511 0 0 1 .346 1.935c-.13.216-.252.435-.369.659l-.008.016q-.255.489-.465 1l-.017.042a8.95 8.95 0 0 0-.126.322l-.006.015a12.805 12.805 0 0 0-.232.688l-.021.069-.083.293-.016.056c-.031.118-.061.235-.089.354v.019c-.025.108-.049.216-.071.324l-.018.092c-.018.09-.035.181-.05.272l-.016.087q-.029.177-.054.354v.024c-.014.109-.027.219-.039.329 0 .035-.007.07-.011.1-.008.088-.016.176-.022.263 0 .036-.006.071-.008.106-.009.119-.015.238-.02.358v.982c0 .037 0 .073.006.11 0 .071.006.142.011.213l.013.173c.004.058.007.1.012.148l.014.138.019.181c0 .028.008.055.011.082.01.079.019.157.031.235 0 .023.007.047.011.07.012.082.024.163.038.243l.019.107.038.2.026.125c.013.061.025.123.039.184l.03.127.042.178.029.109.052.194.022.077c.021.074.042.149.065.223l.022.069.073.227.029.084.073.209.034.092.075.2.015.037.1.249.012.029c.036.085.073.17.111.254l.021.045c.035.078.071.157.109.234l.016.033c.084.173.171.345.263.514l.02.034c.042.078.085.156.13.233.05.088.1.174.153.26l.039.062.124.2.026.04.142.215.028.04c.163.238.334.471.513.7l.031.038a12.362 12.362 0 0 0 9.023 4.651h.063q.293.015.587.015h.389l.215-.008.109-.007.192-.011.12-.011c.06 0 .12-.009.179-.015l.123-.013.175-.019.124-.017.171-.023.125-.02.168-.027.126-.023c.055-.01.11-.019.164-.03l.127-.026.162-.034.126-.03.159-.037c.043-.01.086-.022.128-.033l.155-.04.127-.036.154-.044.125-.039.153-.047.124-.042.151-.051.123-.045c.041-.015.1-.035.149-.054l.122-.047.147-.058.121-.05.145-.061.121-.053.142-.064.119-.056.141-.067.117-.058.139-.07.116-.062.137-.073.114-.064.135-.076.114-.067.132-.079.111-.069.131-.082c.037-.023.073-.047.11-.072l.128-.084.109-.074.126-.088.107-.077.123-.09.1-.079.122-.093.1-.081.119-.1.1-.084.117-.1.1-.086.115-.1.1-.089.112-.1.1-.091.109-.1.094-.093.107-.108.091-.1.1-.111c.03-.032.06-.064.089-.1s.069-.075.1-.113l.088-.1.1-.115.085-.1.1-.118.082-.1.094-.12.081-.1.091-.123.078-.106.089-.125.075-.108.086-.126.073-.111.083-.128.071-.112.08-.13.068-.114.077-.133.065-.115.075-.134.062-.117.072-.136.06-.119.068-.138.057-.12.065-.14.055-.121.062-.142.052-.123c.017-.041.039-.1.058-.143s.033-.083.049-.125l.056-.145.046-.126.052-.146c.017-.046.029-.085.044-.127l.048-.149.041-.128.045-.149.038-.13c.013-.043.028-.1.041-.151l.035-.131.038-.152.032-.133c.011-.044.023-.1.034-.154l.029-.133.031-.155.025-.135c.008-.045.019-.1.028-.156l.022-.135.024-.158.019-.137a16.368 16.368 0 0 0 .052-.456l.012-.138.006-.056c.041-.521.33-.436.808-.647a4.582 4.582 0 0 1 4.119 0c.479.211.824.126.866.647v.056l.012.138.017.16.016.138.019.158.02.137.023.158c.008.058.015.09.023.135l.027.156.025.135.031.155c.01.055.019.089.029.133l.034.154c.011.054.021.089.032.133l.038.152.035.131.042.151.037.13c.012.044.03.1.046.149l.04.128.049.149.043.127c.014.042.034.1.052.146l.047.127c.016.042.036.1.055.144s.032.083.049.125l.058.143.053.123.061.142.055.121.065.14.058.12.068.138.06.119.071.136.063.117.074.134.065.115.077.133.069.114.08.13.07.112.083.128.073.111.086.126.076.109.088.124.078.106.092.122c.031.04.053.071.08.1s.062.08.094.12l.083.1.1.117.085.1.1.115.088.1.1.113.089.1.1.111.091.1.107.107.094.094.109.1.1.091.112.1.1.089.114.1.1.086c.038.033.077.065.116.1l.1.084.119.1.1.081.122.093.1.079c.041.031.082.06.124.09l.106.077.126.088.109.074.128.084.11.072.131.082.111.069.132.079.114.067.134.076.115.064.137.073.116.062.138.069.119.059.14.067.119.056.143.064.12.053.145.061.121.05.147.058.122.047.149.054.123.045.15.051.125.042.153.047.125.039.153.044.128.036.155.04c.043.011.085.023.128.033l.159.037.127.03.161.034.127.026c.054.011.109.02.164.03l.126.023.168.027.125.02.171.023.125.017.174.019.123.013c.059.006.119.011.179.015l.12.011.193.011.108.007.215.008h.394c.2 0 .392 0 .587-.015h.064a12.361 12.361 0 0 0 9.022-4.651l.032-.038c.179-.226.349-.459.512-.7l.028-.04c.049-.071.1-.143.142-.215l.027-.04c.042-.065.082-.131.123-.2l.039-.062c.052-.086.1-.172.154-.26l.13-.233.019-.034c.092-.169.179-.341.263-.514l.017-.033c.037-.077.073-.156.108-.234l.021-.045c.038-.084.075-.169.111-.254l.012-.029c.035-.082.069-.166.1-.249l.014-.037c.026-.066.05-.132.075-.2l.035-.092c.025-.069.048-.139.072-.209l.029-.084c.026-.075.049-.151.073-.227l.022-.069c.023-.074.044-.149.065-.223l.023-.077c.018-.064.034-.129.051-.194l.029-.109c.015-.059.028-.119.042-.178l.03-.127c.014-.061.026-.123.039-.184l.026-.125c.014-.068.025-.136.038-.2l.019-.107c.014-.08.026-.161.038-.243l.012-.07c.011-.078.02-.156.03-.235 0-.027.008-.054.011-.082l.019-.181.014-.138.012-.148c.004-.048.01-.115.013-.173l.012-.213v-.763c0-.056.006-.127.004-.188zm-31.891.708a10.941 10.941 0 1 1-11.3-11.3 10.97 10.97 0 0 1 11.3 11.3zm19.161 10.572a10.941 10.941 0 1 1 11.3-11.3 10.971 10.971 0 0 1-11.3 11.3z" style="fill:#7f3f0f"/>
                        </g>
                    </g>
                </g>
            </g>
        </g>
    </g>
</svg>
