<svg xmlns="http://www.w3.org/2000/svg" width="100" height="100" viewBox="0 0 100 100">
    <defs>
        <clipPath id="e9s1dwcyta">
            <circle data-name="타원 1745" cx="50" cy="50" r="50" transform="translate(7592.091 2025.868)" style="fill:none"/>
        </clipPath>
        <clipPath id="dvcogm8tob">
            <path d="m7639.888 2040.114-10.574 18.315a2.426 2.426 0 0 0 1.533 3.569 44.653 44.653 0 0 0 22.366.065 2.426 2.426 0 0 0 1.491-3.558l-10.618-18.391a2.423 2.423 0 0 0-4.198 0z" style="fill:none"/>
        </clipPath>
    </defs>
    <g data-name="그룹 4594" transform="translate(-7592.091 -2025.868)">
        <circle data-name="타원 1732" cx="50" cy="50" r="50" transform="translate(7592.091 2025.868)" style="fill:#ffd421"/>
        <g data-name="그룹 4593">
            <g data-name="그룹 4592" style="clip-path:url(#e9s1dwcyta)">
                <g data-name="그룹 4591">
                    <path data-name="사각형 3446" d="M36.568 0a36.568 36.568 0 0 1 36.567 36.568v21.849a14.718 14.718 0 0 1-14.718 14.718h-43.7A14.718 14.718 0 0 1 0 58.417V36.568A36.568 36.568 0 0 1 36.568 0z" transform="translate(7605.523 2094.671)" style="fill:#ba6219"/>
                    <g data-name="그룹 4590">
                        <g data-name="패스 3866" style="stroke-miterlimit:10;fill:#e5b083">
                            <path d="M7642.85 2115.1c-.246 0-.496-.001-.743-.005h-.032c-.25.004-.494.006-.744.006-5.804 0-11.42-1.066-16.242-3.082-4.71-1.97-8.618-4.824-11.298-8.254-3.856-4.933-5.077-10.828-3.53-17.045.8-3.21.8-3.21 1.702-9.423.41-2.813.688-6.048-1.188-8.833a8.774 8.774 0 0 1-1.5-5.038c.062-4.799 4.019-8.703 8.82-8.703h.13a8.784 8.784 0 0 1 5.988 2.47 8.554 8.554 0 0 0 8.335 2.073 35.928 35.928 0 0 1 8.187-1.366l.029-.002.028-.003c.277-.029.536-.043.79-.043.132 0 .264.002.395.004h.1l.014.001h.013l.1-.001c.132-.002.264-.004.396-.004.254 0 .513.014.79.043l.028.003.029.002c2.795.141 5.55.6 8.187 1.366a8.555 8.555 0 0 0 8.334-2.073 8.784 8.784 0 0 1 5.989-2.47h.13c4.802 0 8.758 3.904 8.819 8.703a8.758 8.758 0 0 1-1.499 5.038c-1.876 2.784-1.597 6.02-1.188 8.833.902 6.213.902 6.213 1.702 9.423 1.547 6.218.327 12.112-3.53 17.046-2.68 3.43-6.587 6.283-11.298 8.253-4.822 2.016-10.438 3.082-16.242 3.082z" style="stroke:none"/>
                            <path d="M7618.096 2055.761c-4.237 0-7.728 3.445-7.783 7.678a7.744 7.744 0 0 0 1.323 4.445c.944 1.401 1.473 2.997 1.619 4.878.127 1.648-.062 3.293-.265 4.685-.893 6.146-.91 6.263-1.721 9.523-1.468 5.896-.313 11.483 3.34 16.156 2.57 3.29 6.333 6.033 10.88 7.935 4.697 1.964 10.175 3.002 15.842 3.002.245 0 .483-.002.728-.006h.064c.241.004.486.006.728.006 5.668 0 11.146-1.038 15.841-3.002 4.548-1.901 8.31-4.645 10.882-7.935 3.652-4.672 4.807-10.26 3.34-16.155-.812-3.26-.83-3.378-1.723-9.524-.202-1.393-.391-3.038-.264-4.685.145-1.881.675-3.477 1.62-4.878a7.733 7.733 0 0 0 1.321-4.445c-.054-4.233-3.545-7.678-7.782-7.678l-.114.001a7.747 7.747 0 0 0-5.283 2.178 9.59 9.59 0 0 1-6.686 2.7c-.9 0-1.795-.127-2.659-.377a34.875 34.875 0 0 0-7.95-1.326l-.056-.003-.056-.006a6.456 6.456 0 0 0-.682-.038c-.126 0-.254.002-.38.004l-.13.001-.13-.001a27.935 27.935 0 0 0-.378-.004c-.218 0-.44.012-.682.038l-.056.006-.056.003c-2.715.137-5.39.583-7.951 1.326a9.548 9.548 0 0 1-2.659.377c-2.505 0-4.88-.959-6.685-2.7a7.749 7.749 0 0 0-5.397-2.179m0-2.076.144.001a9.822 9.822 0 0 1 6.694 2.76 7.541 7.541 0 0 0 7.325 1.823 36.917 36.917 0 0 1 8.424-1.406c.295-.031.594-.049.899-.049.17 0 .34.003.509.005.169-.002.34-.005.51-.005.304 0 .603.018.898.049 2.925.148 5.749.63 8.424 1.406a7.546 7.546 0 0 0 7.325-1.824 9.82 9.82 0 0 1 6.838-2.76c5.357 0 9.79 4.353 9.858 9.728a9.806 9.806 0 0 1-1.676 5.63c-1.612 2.393-1.437 5.249-1.022 8.105.895 6.161.895 6.161 1.682 9.321 4.2 16.877-11.545 29.67-32.077 29.67-.253 0-.506-.002-.76-.006-.256.004-.506.006-.76.006-20.532 0-36.277-12.794-32.077-29.67.786-3.16.786-3.16 1.682-9.321.415-2.856.59-5.712-1.022-8.104a9.818 9.818 0 0 1-1.677-5.63c.07-5.376 4.5-9.729 9.859-9.729z" style="fill:#ba6219;stroke:none"/>
                        </g>
                        <path data-name="패스 3867" d="M7644.258 2086.259a2.167 2.167 0 1 1-4.335 0c0-1.2.971-1.242 2.168-1.242s2.167.045 2.167 1.242z" style="fill:#7f3f0f"/>
                        <g data-name="그룹 4584">
                            <circle data-name="타원 1733" cx="2.167" cy="2.167" r="2.167" transform="translate(7626.864 2079.016)" style="fill:#7f3f0f"/>
                            <circle data-name="타원 1734" cx="2.167" cy="2.167" r="2.167" transform="translate(7652.983 2079.016)" style="fill:#7f3f0f"/>
                        </g>
                        <circle data-name="타원 1735" cx="3.247" cy="3.247" r="3.247" transform="translate(7615.423 2060.311)" style="fill:#ba6219"/>
                        <circle data-name="타원 1736" cx="3.247" cy="3.247" r="3.247" transform="translate(7663.053 2060.311)" style="fill:#ba6219"/>
                        <g data-name="그룹 4588">
                            <g data-name="패스 3868" style="fill:#ffac9c;stroke-miterlimit:10">
                                <path d="M7642.434 2062.562c-3.675 0-7.502-.482-11.374-1.431a1.533 1.533 0 0 1-.973-2.256l10.575-18.314c.276-.48.772-.766 1.325-.766.553 0 1.049.286 1.325.766l10.619 18.39c.24.416.271.908.087 1.35a1.533 1.533 0 0 1-1.033.898 41.255 41.255 0 0 1-10.55 1.363z" style="stroke:none"/>
                                <path d="M7641.987 2040.688a.617.617 0 0 0-.552.32l-10.574 18.314a.64.64 0 0 0 .412.941c3.802.933 7.557 1.405 11.161 1.405 3.509 0 6.982-.448 10.323-1.332a.64.64 0 0 0 .4-.938l-10.618-18.39a.617.617 0 0 0-.552-.32m0-1.786c.816 0 1.632.404 2.099 1.212l10.618 18.39c.8 1.388.058 3.15-1.491 3.559-7.267 1.923-14.731 1.807-22.366-.065-1.574-.386-2.343-2.166-1.533-3.569l10.574-18.315a2.4 2.4 0 0 1 2.099-1.212z" style="fill:#ff7e83;stroke:none"/>
                            </g>
                            <g data-name="그룹 4587">
                                <g data-name="그룹 4586" style="clip-path:url(#dvcogm8tob)">
                                    <g data-name="그룹 4585">
                                        <circle data-name="타원 1737" cx="2.709" cy="2.709" r="2.709" transform="rotate(-10.901 14534.415 -38981.645)" style="fill:#fff"/>
                                        <circle data-name="타원 1738" cx="2.709" cy="2.709" r="2.709" transform="translate(7642.009 2049.013)" style="fill:#fff"/>
                                        <circle data-name="타원 1739" cx="2.709" cy="2.709" r="2.709" transform="translate(7635.179 2054.43)" style="fill:#fff"/>
                                        <circle data-name="타원 1740" cx="2.709" cy="2.709" r="2.709" transform="translate(7646.387 2057.139)" style="fill:#fff"/>
                                        <circle data-name="타원 1741" cx="2.709" cy="2.709" r="2.709" transform="translate(7641.439 2037.854)" style="fill:#fff"/>
                                    </g>
                                </g>
                            </g>
                            <g data-name="패스 3869" style="stroke-miterlimit:10;fill:none">
                                <path d="m7639.888 2040.114-10.574 18.315a2.426 2.426 0 0 0 1.533 3.569 44.653 44.653 0 0 0 22.366.065 2.426 2.426 0 0 0 1.491-3.558l-10.618-18.391a2.423 2.423 0 0 0-4.198 0z" style="stroke:none"/>
                                <path d="M7641.987 2040.688a.617.617 0 0 0-.552.32l-10.574 18.314a.64.64 0 0 0 .412.941c3.802.933 7.557 1.405 11.161 1.405 3.509 0 6.982-.448 10.323-1.332a.64.64 0 0 0 .4-.938l-10.618-18.39a.617.617 0 0 0-.552-.32m0-1.786c.816 0 1.632.404 2.099 1.212l10.618 18.39c.8 1.388.058 3.15-1.491 3.559-7.267 1.923-14.731 1.807-22.366-.065-1.574-.386-2.343-2.166-1.533-3.569l10.574-18.315a2.4 2.4 0 0 1 2.099-1.212z" style="fill:#ff7e83;stroke:none"/>
                            </g>
                        </g>
                        <path data-name="패스 3870" d="M7628.539 2092.015a28.547 28.547 0 0 0 27.1-.2" style="stroke:#7f3f0f;stroke-linecap:round;stroke-width:1.765px;stroke-miterlimit:10;fill:none"/>
                        <g data-name="그룹 4589">
                            <circle data-name="타원 1742" cx="4.322" cy="4.322" r="4.322" transform="translate(7616.805 2088.673)" style="fill:#7f3f0f"/>
                            <circle data-name="타원 1743" cx="4.322" cy="4.322" r="4.322" transform="translate(7658.733 2088.673)" style="fill:#7f3f0f"/>
                        </g>
                        <g data-name="타원 1744" transform="translate(7638.569 2033.466)" style="stroke:#ff7e83;stroke-width:1.786px;fill:#fff;stroke-miterlimit:10">
                            <circle cx="3.391" cy="3.391" r="3.391" style="stroke:none"/>
                            <circle cx="3.391" cy="3.391" r="2.498" style="fill:none"/>
                        </g>
                    </g>
                </g>
            </g>
        </g>
    </g>
</svg>
