<svg xmlns="http://www.w3.org/2000/svg" width="100" height="100" viewBox="0 0 100 100">
    <defs>
        <clipPath id="cytnf2ct6a">
            <circle data-name="타원 1767" cx="50" cy="50" r="50" transform="translate(7592.091 2025.868)" style="fill:none"/>
        </clipPath>
        <clipPath id="g1nca1w2wb">
            <path data-name="패스 3912" d="M7670.674 2051.23a1.145 1.145 0 0 0-.787-.962 7.184 7.184 0 0 0-8.347 3.149 1.168 1.168 0 0 1-1.629.385 15.785 15.785 0 0 0-8.454-2.44h-27.2a17.022 17.022 0 0 0-17.022 17.023 17.022 17.022 0 0 0 17.022 17.022h7.844a1.168 1.168 0 0 1 1.168 1.168v34.986a17.022 17.022 0 0 0 17.022 17.023 17.023 17.023 0 0 0 17.023-17.023v-48a16.071 16.071 0 0 0-.11-1.869 1.161 1.161 0 0 1 0-.267 16.071 16.071 0 0 0 .11-1.869v-2.337a15.788 15.788 0 0 0-1.609-6.964 1.171 1.171 0 0 1 .6-1.6 7.184 7.184 0 0 0 4.375-7.42z" style="fill:none"/>
        </clipPath>
    </defs>
    <g transform="translate(-7592.091 -2025.868)">
        <circle data-name="타원 1762" cx="50" cy="50" r="50" transform="translate(7592.091 2025.868)" style="fill:#d6e8fc"/>
        <g data-name="그룹 4633">
            <g data-name="그룹 4632" style="clip-path:url(#cytnf2ct6a)">
                <path data-name="패스 3905" d="M7670.674 2051.23a1.145 1.145 0 0 0-.787-.962 7.184 7.184 0 0 0-8.347 3.149 1.168 1.168 0 0 1-1.629.385 15.785 15.785 0 0 0-8.454-2.44h-27.2a17.022 17.022 0 0 0-17.022 17.023 17.022 17.022 0 0 0 17.022 17.022h7.844a1.168 1.168 0 0 1 1.168 1.168v34.986a17.022 17.022 0 0 0 17.022 17.023 17.023 17.023 0 0 0 17.023-17.023v-48a16.071 16.071 0 0 0-.11-1.869 1.161 1.161 0 0 1 0-.267 16.071 16.071 0 0 0 .11-1.869v-2.337a15.788 15.788 0 0 0-1.609-6.964 1.171 1.171 0 0 1 .6-1.6 7.184 7.184 0 0 0 4.375-7.42z" style="stroke-width:2.076px;stroke-miterlimit:10;stroke:#ffb531;fill:#ffc840"/>
                <circle data-name="타원 1763" cx="2.494" cy="2.494" r="2.494" transform="translate(7632.825 2060.994)" style="fill:#7f3f0f"/>
                <circle data-name="타원 1764" cx="2.494" cy="2.494" r="2.494" transform="translate(7646.834 2060.994)" style="fill:#7f3f0f"/>
                <circle data-name="타원 1765" cx="3.915" cy="3.915" r="3.915" transform="translate(7640.044 2037.746)" style="stroke-width:2.076px;stroke-miterlimit:10;stroke:#ffb531;fill:#ffc840"/>
                <circle data-name="타원 1766" cx="3.915" cy="3.915" r="3.915" transform="translate(7652.661 2037.746)" style="stroke-width:2.076px;stroke-miterlimit:10;stroke:#ffb531;fill:#ffc840"/>
                <path data-name="선 70" transform="translate(7644.018 2045.866)" style="stroke-width:2.076px;stroke-miterlimit:10;stroke:#ffb531;fill:none" d="M0 0v5.139"/>
                <path data-name="선 71" transform="translate(7656.255 2045.866)" style="stroke-width:2.076px;stroke-miterlimit:10;stroke:#ffb531;fill:none" d="M0 0v7.031"/>
                <path data-name="패스 3906" d="M7626.77 2051.362h-2.515a17.022 17.022 0 0 0-17.022 17.023 17.022 17.022 0 0 0 17.022 17.022h2.515z" style="fill:#ffb531"/>
                <path data-name="패스 3907" d="M7622.2 2074.853a4.066 4.066 0 0 1-8.132 0" style="stroke:#7f3f0f;stroke-linecap:round;stroke-width:1.433px;stroke-miterlimit:10;fill:none"/>
                <g data-name="그룹 4631">
                    <g data-name="그룹 4630" style="clip-path:url(#g1nca1w2wb)">
                        <g data-name="그룹 4629">
                            <path data-name="패스 3908" d="M7656.519 2088.746s5.191-3.37 5.894-5.232a5.759 5.759 0 1 0-11.517-.143c.638 1.885 5.623 5.375 5.623 5.375z" style="fill:#7f3f0f"/>
                            <path data-name="패스 3909" d="M7671.088 2092.063a9.821 9.821 0 0 1-7.161-.067 3.6 3.6 0 0 0-2.257 4.568c.638 1.885 5.623 5.374 5.623 5.374s5.191-3.37 5.893-5.232a3.6 3.6 0 0 0-2.098-4.643z" style="fill:#7f3f0f"/>
                            <path data-name="패스 3910" d="M7656.86 2102.926a9.821 9.821 0 0 1-7.162-.067 3.6 3.6 0 0 0-2.257 4.568c.638 1.885 5.623 5.374 5.623 5.374s5.191-3.37 5.894-5.232a3.6 3.6 0 0 0-2.098-4.643z" style="fill:#7f3f0f"/>
                            <path data-name="패스 3911" d="M7670.67 2115.185a9.826 9.826 0 0 1-7.162-.067 3.6 3.6 0 0 0-2.257 4.568c.638 1.884 5.623 5.374 5.623 5.374s5.191-3.37 5.894-5.232a3.6 3.6 0 0 0-2.098-4.643z" style="fill:#7f3f0f"/>
                        </g>
                    </g>
                </g>
                <path data-name="패스 3913" d="M7670.674 2051.23a1.145 1.145 0 0 0-.787-.962 7.184 7.184 0 0 0-8.347 3.149 1.168 1.168 0 0 1-1.629.385 15.785 15.785 0 0 0-8.454-2.44h-27.2a17.022 17.022 0 0 0-17.022 17.023 17.022 17.022 0 0 0 17.022 17.022h7.844a1.168 1.168 0 0 1 1.168 1.168v34.986a17.022 17.022 0 0 0 17.022 17.023 17.023 17.023 0 0 0 17.023-17.023v-48a16.071 16.071 0 0 0-.11-1.869 1.161 1.161 0 0 1 0-.267 16.071 16.071 0 0 0 .11-1.869v-2.337a15.788 15.788 0 0 0-1.609-6.964 1.171 1.171 0 0 1 .6-1.6 7.184 7.184 0 0 0 4.375-7.42z" style="stroke-width:2.389px;stroke-miterlimit:10;stroke:#ffb531;fill:none"/>
            </g>
        </g>
    </g>
</svg>
