<svg xmlns="http://www.w3.org/2000/svg" width="100" height="100" viewBox="0 0 100 100">
    <g transform="translate(-7592.091 -2025.868)">
        <circle data-name="타원 1772" cx="50" cy="50" r="50" transform="translate(7592.091 2025.868)" style="fill:#ea3464"/>
        <g data-name="그룹 4644">
            <g data-name="그룹 4639">
                <path data-name="패스 3922" d="m7619.953 2081.619-1.821-3.349-3.884 2.113-1.821-3.349-13.127 7.138c-3.393 1.846-.99 6.266 2.4 4.421l1.668-.907c-.116 1.758 1.732 3.4 4.037 2.143l1.936-1.053c-.116 1.759 1.732 3.4 4.038 2.144l13.127-7.139-2.4-4.42z" style="fill:#fff"/>
                <path data-name="패스 3923" d="m7664.228 2081.619 1.821-3.349 3.885 2.113 1.821-3.349 13.127 7.138c3.393 1.846.989 6.266-2.4 4.421l-1.668-.907c.116 1.758-1.732 3.4-4.037 2.143l-1.936-1.053c.116 1.759-1.732 3.4-4.038 2.144l-13.127-7.139 2.4-4.42z" style="fill:#fff"/>
            </g>
            <g data-name="그룹 4643">
                <g data-name="그룹 4641">
                    <path data-name="패스 3924" d="M7645.78 2104.057a7.538 7.538 0 0 0 .807-.508c7.591-5.453 22.294-16.681 25.131-23.731 3.859-9.589-.021-20.834-8.666-25.114-7.6-3.764-16.355-.89-20.982 6.376-4.638-7.217-13.362-10.061-20.94-6.309-8.645 4.281-12.526 15.525-8.666 25.115 2.834 7.044 17.463 18.224 25.029 23.663a7.89 7.89 0 0 0 .881.547s3.908 2.829 7.406-.039z" style="stroke-linejoin:round;fill:#ffa4c2;stroke:#fc6895;stroke-width:2.296px"/>
                    <path data-name="패스 3925" d="M7650.679 2078.552c0 7.068-17.419 7.068-17.419 0a2.879 2.879 0 0 1 2.878-2.878h11.662a2.878 2.878 0 0 1 2.878 2.878z" style="stroke:#ea3464;stroke-width:2.017px;stroke-linejoin:round;fill:#ea3464"/>
                    <g data-name="그룹 4640">
                        <circle data-name="타원 1773" cx="2.098" cy="2.098" r="2.098" transform="translate(7629.399 2069.183)" style="fill:#ea3464"/>
                        <circle data-name="타원 1774" cx="2.098" cy="2.098" r="2.098" transform="translate(7650.587 2069.183)" style="fill:#ea3464"/>
                    </g>
                </g>
                <g data-name="그룹 4642">
                    <path data-name="패스 3926" d="M7623.858 2086.065a1.5 1.5 0 0 0 .159-.1c1.5-1.075 4.394-3.288 4.953-4.677a3.92 3.92 0 0 0-1.708-4.949 7.454 7.454 0 0 1-8.262.013 3.921 3.921 0 0 0-1.708 4.949c.559 1.388 3.442 3.592 4.933 4.663a1.428 1.428 0 0 0 .174.108 1.237 1.237 0 0 0 1.459-.007z" style="fill:#fc6895"/>
                    <path data-name="패스 3927" d="M7661.778 2086.065a1.725 1.725 0 0 0 .159-.1c1.5-1.075 4.393-3.288 4.952-4.677a3.92 3.92 0 0 0-1.707-4.949 7.454 7.454 0 0 1-8.262.013 3.92 3.92 0 0 0-1.708 4.949c.559 1.388 3.442 3.592 4.933 4.663a1.538 1.538 0 0 0 .173.108 1.238 1.238 0 0 0 1.46-.007z" style="fill:#fc6895"/>
                </g>
            </g>
            <ellipse data-name="타원 1775" cx="14.636" cy="3.641" rx="14.636" ry="3.641" transform="translate(7627.455 2040.501)" style="fill:none;stroke:#ffd98c;stroke-miterlimit:10;stroke-width:2.076px"/>
        </g>
    </g>
</svg>
