<svg xmlns="http://www.w3.org/2000/svg" xmlns:xlink="http://www.w3.org/1999/xlink" width="85" height="85" viewBox="0 0 85 85">
  <defs>
    <style>
      .cls-1, .cls-10, .cls-12, .cls-7, .cls-9 {
        fill: none;
      }

      .cls-2 {
        fill: #fff;
      }

      .cls-3 {
        fill: #37354e;
      }

      .cls-4, .cls-5 {
        fill: #c2a2ff;
      }

      .cls-4 {
        stroke: rgba(0,0,0,0);
        stroke-miterlimit: 10;
      }

      .cls-6 {
        isolation: isolate;
      }

      .cls-7 {
        stroke: #37354e;
      }

      .cls-8 {
        fill: #6839d3;
      }

      .cls-10, .cls-9 {
        stroke: #fff;
      }

      .cls-10 {
        stroke-width: 2px;
      }

      .cls-11 {
        stroke: none;
      }

      .cls-12 {
        clip-path: url(#clip);
      }
    </style>
    <clipPath id="clip">
      <use xlink:href="#fill"/>
    </clipPath>
  </defs>
  <g id="img_main_security" transform="translate(-233 -364)">
    <rect id="area" class="cls-1" width="85" height="85" transform="translate(233 364)"/>
    <g id="그룹_4039" data-name="그룹 4039" transform="translate(100.709 10.927)">
      <path id="패스_2268" data-name="패스 2268" class="cls-2" d="M244.314,30.027l-1.321,1.264c0,.09-1.357,2.138-1.357,2.138v33.62l8.833,10.309V89.2l7.211-1.619,5.464,2.563,6.341-2.563,6.071,2.563,6.071-2.563,5.464,1.956.279-55.178-2.564-3.072-2.4-1.264-2.719-.541Z" transform="translate(-96.521 332.032)"/>
      <g id="그룹_2937" data-name="그룹 2937" transform="translate(139.291 361.073)">
        <path id="패스_2258" data-name="패스 2258" class="cls-3" d="M1326.631,477h-1.061V445.61a5.116,5.116,0,0,1,5.111-5.11h34.852v1.061h-34.852a4.055,4.055,0,0,0-4.05,4.049Z" transform="translate(-1320.227 -440.5)"/>
        <path id="패스_2259" data-name="패스 2259" class="cls-2" d="M1351.731,489v-1.061a5.581,5.581,0,0,0,5.575-5.576V451.073h1.061v31.293A6.644,6.644,0,0,1,1351.731,489Z" transform="translate(-1318.637 -439.858)"/>
        <path id="패스_2261" data-name="패스 2261" class="cls-3" d="M1347.162,502.211a1.969,1.969,0,0,1-.846-.193l-5.345-2.546a.489.489,0,0,0-.433,0l-4.333,2.114a1.559,1.559,0,0,1-2.243-1.4v-11.6h18.849v1.061h-17.788v10.543a.49.49,0,0,0,.234.421.5.5,0,0,0,.483.025l4.333-2.115a1.554,1.554,0,0,1,1.354-.006l5.346,2.547a.9.9,0,0,0,.778,0l5.331-2.538a1.558,1.558,0,0,1,1.394.029l4.71,2.479a.9.9,0,0,0,.8.012l5.13-2.5a1.553,1.553,0,0,1,1.44.038l3.5,1.944a.5.5,0,0,0,.738-.434V447.345a5.7,5.7,0,0,0-5.2-5.772,5.575,5.575,0,0,0-5.949,5.563v34.347h-1.061V447.136a6.666,6.666,0,0,1,2.1-4.843,6.589,6.589,0,0,1,4.978-1.778,6.759,6.759,0,0,1,6.2,6.83v52.742a1.559,1.559,0,0,1-2.316,1.362l-3.5-1.944a.5.5,0,0,0-.459-.014l-5.131,2.5a1.953,1.953,0,0,1-1.762-.028l-4.71-2.479a.507.507,0,0,0-.444-.008l-5.33,2.537A1.956,1.956,0,0,1,1347.162,502.211Z" transform="translate(-1319.717 -440.5)"/>
        <path id="합치기_35" data-name="합치기 35" class="cls-4" d="M6.637,13.273A6.644,6.644,0,0,1,0,6.638V2.058A2.06,2.06,0,0,1,2.057,0h23.4a2.06,2.06,0,0,1,2.057,2.058h-.861l.108.2v4.1L27.4,9.657l2.751,2.465-.126.049q1.481.041,3.068.042v1.06Z" transform="translate(0 35.872)"/>
        <path id="패스_2262" data-name="패스 2262" class="cls-3" d="M1352.111,487.6a6.843,6.843,0,0,1-6.636-7.018v-4.2h1.061v4.2a5.588,5.588,0,1,0,11.151,0V474.1h1.061v6.488A6.843,6.843,0,0,1,1352.111,487.6Z" transform="translate(-1319.017 -438.459)"/>
        <path id="패스_2263" data-name="패스 2263" class="cls-3" d="M1335.643,455.625h-2.628a2.654,2.654,0,0,1-2.652-2.652v-2.626a2.654,2.654,0,0,1,2.652-2.652h2.628a2.654,2.654,0,0,1,2.652,2.652v2.626A2.654,2.654,0,0,1,1335.643,455.625Zm-2.628-6.869a1.593,1.593,0,0,0-1.591,1.591v2.626a1.593,1.593,0,0,0,1.591,1.591h2.628a1.593,1.593,0,0,0,1.591-1.591v-2.626a1.593,1.593,0,0,0-1.591-1.591Z" transform="translate(-1319.935 -440.063)"/>
        <path id="패스_2264" data-name="패스 2264" class="cls-3" d="M1335.643,455.625h-2.628a2.654,2.654,0,0,1-2.652-2.652v-2.626a2.654,2.654,0,0,1,2.652-2.652h2.628a2.654,2.654,0,0,1,2.652,2.652v2.626A2.654,2.654,0,0,1,1335.643,455.625Zm-2.628-6.869a1.593,1.593,0,0,0-1.591,1.591v2.626a1.593,1.593,0,0,0,1.591,1.591h2.628a1.593,1.593,0,0,0,1.591-1.591v-2.626a1.593,1.593,0,0,0-1.591-1.591Z" transform="translate(-1319.935 -427.334)"/>
        <rect id="사각형_2426" data-name="사각형 2426" class="cls-5" width="12.952" height="1.079" rx="0.54" transform="translate(21.328 8.555)"/>
        <rect id="사각형_2427" data-name="사각형 2427" class="cls-5" width="9.714" height="1.079" rx="0.54" transform="translate(21.328 12.872)"/>
        <rect id="사각형_2429" data-name="사각형 2429" class="cls-5" width="12.952" height="1.079" rx="0.54" transform="translate(21.328 21.507)"/>
        <rect id="사각형_2428" data-name="사각형 2428" class="cls-5" width="9.714" height="1.079" rx="0.54" transform="translate(21.328 25.824)"/>
      </g>
      <g id="coin" class="cls-6" transform="translate(182.151 384.74)">
        <circle id="타원_301" data-name="타원 301" class="cls-1" cx="11.873" cy="11.873" r="11.873" transform="translate(1.134 1.079)"/>
        <g id="타원_300" data-name="타원 300" class="cls-7" transform="translate(4.372 4.317)">
          <circle class="cls-11" cx="11.873" cy="11.873" r="11.873"/>
          <circle class="cls-1" cx="11.873" cy="11.873" r="11.373"/>
        </g>
        <g id="그룹_4038" data-name="그룹 4038" transform="translate(0 0)">
          <circle id="타원_1528" data-name="타원 1528" class="cls-8" cx="12.413" cy="12.413" r="12.413" transform="translate(0 0)"/>
          <g id="그룹_3996" data-name="그룹 3996" transform="translate(6.476 5.397)">
            <g id="사각형_2124" data-name="사각형 2124" class="cls-9" transform="translate(0 4.317)">
              <rect class="cls-11" width="11.873" height="9.714" rx="2"/>
              <rect class="cls-1" x="0.5" y="0.5" width="10.873" height="8.714" rx="1.5"/>
            </g>
            <g id="사각형_2109" data-name="사각형 2109" class="cls-9" transform="translate(2.159 0)">
              <path class="cls-11" d="M3.778,0h0A3.778,3.778,0,0,1,7.555,3.778V5.3a0,0,0,0,1,0,0H0a0,0,0,0,1,0,0V3.778A3.778,3.778,0,0,1,3.778,0Z"/>
              <path class="cls-1" d="M3.778.5h0A3.278,3.278,0,0,1,7.055,3.778v.938a.084.084,0,0,1-.084.084H.584A.084.084,0,0,1,.5,4.716V3.778A3.278,3.278,0,0,1,3.778.5Z"/>
            </g>
            <g id="사각형_2110" data-name="사각형 2110" class="cls-10" transform="translate(6.476 7.555)">
              <rect id="fill" class="cls-11" height="2.159"/>
              <path class="cls-12" d="M0,1h0.000010793572982947808M1,0v2.1587133407592773M0.000010793572982947808,1.1587133407592773h-0.000010793572982947808M-0.999989206427017,2.1587133407592773v-2.1587133407592773"/>
            </g>
            <g id="타원_286" data-name="타원 286" class="cls-10" transform="translate(4.857 8.095)">
              <circle class="cls-11" cx="1.079" cy="1.079" r="1.079"/>
              <circle class="cls-1" cx="1.079" cy="1.079" r="0.079"/>
            </g>
          </g>
        </g>
      </g>
    </g>
  </g>
</svg>
