<svg xmlns="http://www.w3.org/2000/svg" width="60" height="60" viewBox="0 0 60 60">
  <defs>
    <style>
      .cls-1 {
        fill: rgba(255,0,0,0);
      }

      .cls-2 {
        fill: #37354e;
      }

      .cls-3 {
        fill: #6839d3;
      }
    </style>
  </defs>
  <g id="sample_icon_big" transform="translate(-710.079 -1245.382)">
    <rect id="area" class="cls-1" width="60" height="60" transform="translate(710.079 1245.382)"/>
    <g id="그룹_3072" data-name="그룹 3072">
      <path id="패스_2462" data-name="패스 2462" class="cls-2" d="M765.815,1269.036a2.013,2.013,0,0,0-.376-.242l.016-.02-5.774-4.894v-9.5a2,2,0,0,0-2-2H746.109l-5.62-4.762a1,1,0,0,0-1.3,0l-5.53,4.758H721.681a1.976,1.976,0,0,0-1.9,1.484,1.93,1.93,0,0,0-.1.516V1264.4l-5.3,4.562.01.012a1.917,1.917,0,0,0-.708,1.5v29.9h52.754v-29.892A1.971,1.971,0,0,0,765.815,1269.036Zm-2.97.148-3.164,2.47V1266.5Zm-23-19.488,3.17,2.686h-6.29Zm-18.166,3.686v1h36v18.838l-12.128,9.47-4.688-3.436a2,2,0,0,0-2.366,0l-4.3,3.158-12.512-9.776v-18.254h0Zm-2,13.66v4.026l-2.454-1.916Zm-4,28.938v-25.492h0l4,3.122h0l2,1.562,10.836,8.466-9.2,6.748-2.466,1.8Zm30.958,2.4H715.791l8.18-6h0l2.728-2,7.452-5.466,1.676-1.228,3.854-2.832h0l4.238,3.108,1.676,1.228,7.068,5.184,2.726,2h0l8.18,6Zm17.8-1.85-5.938-4.352h0l-2.45-1.8-8.812-6.462,10.448-8.162,2-1.564h0l4.75-3.712h0Z"/>
      <path id="패스_2032" data-name="패스 2032" class="cls-3" d="M748.7,1265.026h-1.284l1.23-3.42a.912.912,0,0,0-.566-1.152l-.068-.02a1.018,1.018,0,0,0-1.258.562v.026l-3.054,8.492-3.06-8.5a1.076,1.076,0,0,0-1.358-.5,1,1,0,0,0-.544.5l-3.062,8.5-3.06-8.5a1.012,1.012,0,0,0-1.24-.6h-.022a.912.912,0,0,0-.65,1.114l0,.006.016.056,1.23,3.42h-1.284a.964.964,0,0,0-.976.952v.008h0a.978.978,0,0,0,.976.888h1.95l2.112,5.862a1.079,1.079,0,0,0,1.358.494,1,1,0,0,0,.544-.494l3.058-8.5,3.06,8.5a1.014,1.014,0,0,0,1.236.6.956.956,0,0,0,.664-.6l2.1-5.854H748.7a.93.93,0,1,0,.122-1.856.617.617,0,0,0-.122,0Z"/>
    </g>
  </g>
</svg>
