<svg xmlns="http://www.w3.org/2000/svg" width="26" height="26" viewBox="0 0 26 26">
  <defs>
    <style>
      .cls-1 {
        fill: none;
      }

      .cls-2 {
        fill: #37354e;
      }
    </style>
  </defs>
  <g id="btn_menu_close" transform="translate(-333 -40)">
    <rect id="사각형_2027" data-name="사각형 2027" class="cls-1" width="26" height="26" transform="translate(333 40)"/>
    <path id="합치기_90" data-name="합치기 90" class="cls-2" d="M-125.735-11469.321l-7.072-7.072-7.071,7.072a1,1,0,0,1-1.415,0,1,1,0,0,1,0-1.415l7.072-7.071-7.072-7.072a1,1,0,0,1,0-1.412,1,1,0,0,1,1.415,0l7.071,7.071,7.072-7.071a1,1,0,0,1,1.413,0,1,1,0,0,1,0,1.412l-7.071,7.072,7.071,7.071a1,1,0,0,1,0,1.415,1,1,0,0,1-.706.292A1,1,0,0,1-125.735-11469.321Z" transform="translate(478.808 11530.809)"/>
  </g>
</svg>
