<svg xmlns="http://www.w3.org/2000/svg" width="26" height="26" viewBox="0 0 26 26">
    <path data-name="사각형 2027" style="fill:none" d="M0 0h26v26H0z"/>
    <path data-name="합치기 90" d="m-125.735-11469.321-7.072-7.072-7.071 7.072a1 1 0 0 1-1.415 0 1 1 0 0 1 0-1.415l7.072-7.071-7.072-7.072a1 1 0 0 1 0-1.412 1 1 0 0 1 1.415 0l7.071 7.071 7.072-7.071a1 1 0 0 1 1.413 0 1 1 0 0 1 0 1.412l-7.071 7.072 7.071 7.071a1 1 0 0 1 0 1.415 1 1 0 0 1-.706.292 1 1 0 0 1-.707-.292z" transform="translate(145.808 11490.809)" style="fill:#fff"/>
</svg>
