<svg xmlns="http://www.w3.org/2000/svg" width="52" height="22" viewBox="0 0 52 22">
  <defs>
    <style>
      .cls-1 {
        fill: #6839d3;
      }
    </style>
  </defs>
  <g id="logo" transform="translate(-319.821 -425.31)">
    <path id="패스_1710" data-name="패스 1710" class="cls-1" d="M328.312,464.476a8.572,8.572,0,1,0-8.491-8.683v.223A8.53,8.53,0,0,0,328.312,464.476Zm0-13.568a5,5,0,1,1-4.952,5A4.98,4.98,0,0,1,328.312,450.909Z" transform="translate(0 -18.773)"/>
    <path id="패스_1711" data-name="패스 1711" class="cls-1" d="M452.107,474.426v-7.293h1.919a1.771,1.771,0,0,0,0-3.543h-1.919v-2.569a1.772,1.772,0,0,0-3.542,0v13.4a1.772,1.772,0,0,0,3.542,0Z" transform="translate(-110.167 -28.827)"/>
    <path id="패스_1712" data-name="패스 1712" class="cls-1" d="M527.225,434.671h-3.911a20.35,20.35,0,0,0-.239-2.487,1.772,1.772,0,1,0-3.488.626,17.172,17.172,0,0,1,.176,1.861h-4.179a1.714,1.714,0,0,0-1.707,1.721v.129a1.714,1.714,0,0,0,1.707,1.721h4.05c-.388,3.117-1.641,6.795-5.147,8.784a1.793,1.793,0,0,0-.675,2.431,1.762,1.762,0,0,0,2.412.68c3.779-2.144,6.158-5.965,6.882-11.051.041-.286.074-.567.1-.844h4.016a1.714,1.714,0,0,0,1.707-1.721v-.129A1.714,1.714,0,0,0,527.225,434.671Z" transform="translate(-165.941 -4.607)"/>
    <circle id="타원_258" data-name="타원 258" class="cls-1" cx="2.509" cy="2.509" r="2.509" transform="translate(356.763 440.372)"/>
    <path id="패스_1713" data-name="패스 1713" class="cls-1" d="M635.526,444.9h-1.919v-5.8a1.771,1.771,0,1,0-3.543,0v16.659a1.771,1.771,0,1,0,3.543,0v-7.289h1.919a1.785,1.785,0,0,0,0-3.57Z" transform="translate(-265.477 -10.229)"/>
    <circle id="타원_259" data-name="타원 259" class="cls-1" cx="1.771" cy="1.771" r="1.771" transform="translate(338.43 425.31)"/>
  </g>
</svg>
