<svg xmlns="http://www.w3.org/2000/svg" xmlns:xlink="http://www.w3.org/1999/xlink" width="300" height="225" viewBox="0 0 300 225">
  <defs>
    <style>
      .cls-1, .cls-10, .cls-11, .cls-12, .cls-4, .cls-8 {
        fill: none;
      }

      .cls-2 {
        fill: #f7f8fc;
      }

      .cls-3, .cls-9 {
        fill: #fff;
      }

      .cls-10, .cls-12, .cls-4, .cls-8, .cls-9 {
        stroke: #37354e;
      }

      .cls-4 {
        stroke-width: 2.5px;
      }

      .cls-5 {
        fill: #37354e;
      }

      .cls-6 {
        fill: #dccbfc;
      }

      .cls-7 {
        clip-path: url(#clip-path);
      }

      .cls-8 {
        stroke-width: 4.443px;
      }

      .cls-10, .cls-9 {
        stroke-width: 3px;
      }

      .cls-10 {
        stroke-linecap: round;
      }

      .cls-11 {
        stroke: #6839d3;
        stroke-width: 4px;
      }

      .cls-12 {
        stroke-width: 1.481px;
      }

      .cls-13 {
        stroke: none;
      }
    </style>
    <clipPath id="clip-path">
      <path id="패스_3642" data-name="패스 3642" class="cls-1" d="M691.325,515.528h89.993a1.363,1.363,0,0,1,1.363,1.363h0a1.363,1.363,0,0,1-1.363,1.363H691.325a1.363,1.363,0,0,1-1.363-1.363h0A1.363,1.363,0,0,1,691.325,515.528Z" transform="translate(-689.962 -515.528)"/>
    </clipPath>
  </defs>
  <g id="m_img_center_m" transform="translate(-572.951 -303.723)">
    <path id="패스_2091" data-name="패스 2091" class="cls-2" d="M637.994,450.32c13.187,14.139,0,36.546,0,36.546s-10.3,38.34,25.835,35.168,61.707-12.023,97.7,0,34.048-35.941,53.108-44.242,41.436-23.4,37.394-49.02-27.6-13.766-18.187-56.771-45.622-32.784-81.978-35.3-55.6-44.77-88.035-22.961-4.9,49.5-42.32,58.262S582.2,394.365,584.677,413.32,624.805,436.181,637.994,450.32Z" transform="translate(-0.873 -0.301)"/>
    <g id="그룹_2657" data-name="그룹 2657" transform="translate(637.05 358.283)">
      <g id="사각형_2104" data-name="사각형 2104" transform="translate(-0.099)">
        <path id="패스_3637" data-name="패스 3637" class="cls-3" d="M656.2,362.969H807.551A13.635,13.635,0,0,1,821.186,376.6v88.629H642.565V376.6A13.636,13.636,0,0,1,656.2,362.969Z" transform="translate(-642.565 -362.969)"/>
        <path id="패스_3638" data-name="패스 3638" class="cls-4" d="M656.318,364.451H807.669a12.271,12.271,0,0,1,12.271,12.271v85.9a1.363,1.363,0,0,1-1.363,1.363H645.41a1.363,1.363,0,0,1-1.363-1.363v-85.9A12.271,12.271,0,0,1,656.318,364.451Z" transform="translate(-642.683 -363.087)"/>
      </g>
      <g id="패스_1869" data-name="패스 1869" transform="translate(70.356 117.828)">
        <path id="패스_3639" data-name="패스 3639" class="cls-3" d="M757.23,514.976H720.948l6.353-22.533h23.576Z" transform="translate(-719.146 -491.08)"/>
        <path id="패스_3640" data-name="패스 3640" class="cls-5" d="M728.178,493.689,722.593,513.5h32.681l-5.584-19.806H728.178m-2.065-2.727h25.64l7.123,25.26H718.991Z" transform="translate(-718.991 -490.962)"/>
      </g>
      <path id="사각형_2112" data-name="사각형 2112" class="cls-6" d="M654.415,477.018H820.764a15,15,0,0,1-15,15H669.413a15,15,0,0,1-15-15Z" transform="translate(-643.506 -372.027)"/>
      <g id="사각형_2105" data-name="사각형 2105" transform="translate(43.633 140.443)">
        <path id="fill" class="cls-1" d="M691.325,515.528h89.993a1.363,1.363,0,0,1,1.363,1.363h0a1.363,1.363,0,0,1-1.363,1.363H691.325a1.363,1.363,0,0,1-1.363-1.363h0A1.363,1.363,0,0,1,691.325,515.528Z" transform="translate(-689.962 -515.528)"/>
        <g id="그룹_4012" data-name="그룹 4012">
          <g id="그룹_4011" data-name="그룹 4011" class="cls-7">
            <path id="패스_3641" data-name="패스 3641" class="cls-8" d="M689.962,516.21h92.72m-2.046-.682v2.727m2.046-.681h-92.72m2.046.681v-2.727" transform="translate(-689.962 -515.528)"/>
          </g>
        </g>
      </g>
      <g id="사각형_2106" data-name="사각형 2106" transform="translate(0 99.538)">
        <path id="패스_3643" data-name="패스 3643" class="cls-1" d="M642.565,471.094H821.186a20.453,20.453,0,0,1-20.453,20.453H663.018a20.453,20.453,0,0,1-20.453-20.453Z" transform="translate(-642.565 -471.094)"/>
        <path id="패스_3644" data-name="패스 3644" class="cls-4" d="M645.155,472.575H818.834a1.108,1.108,0,0,1,1.108,1.108h0A16.619,16.619,0,0,1,803.323,490.3H660.665a16.618,16.618,0,0,1-16.618-16.617h0A1.108,1.108,0,0,1,645.155,472.575Z" transform="translate(-642.683 -471.212)"/>
      </g>
      <g id="그룹_4048" data-name="그룹 4048" transform="translate(58.901 16.04)">
        <g id="그룹_4041" data-name="그룹 4041" transform="translate(0)">
          <g id="그룹_4042" data-name="그룹 4042" transform="translate(0 0)">
            <g id="그룹_4047" data-name="그룹 4047" transform="translate(0 0)">
              <path id="패스_3680" data-name="패스 3680" class="cls-5" d="M532.944,182.383a7.781,7.781,0,0,0-9.042-1.415v-12.2A7.774,7.774,0,0,0,516.137,161H477.766A7.774,7.774,0,0,0,470,168.766v54.825a7.774,7.774,0,0,0,7.766,7.766h38.371a7.775,7.775,0,0,0,7.766-7.766V203.768l9.723-9.723a7.765,7.765,0,0,0,0-10.982ZM498.73,211.572l5.657,5.71-7.7,2.043Zm8.655,4.321-7.271-7.337L521.1,187.63l7.274,7.274Zm13.411,7.7a4.665,4.665,0,0,1-4.659,4.659H477.766a4.665,4.665,0,0,1-4.659-4.659V168.766a4.665,4.665,0,0,1,4.659-4.659h38.371a4.664,4.664,0,0,1,4.659,4.659v14.779l-23.972,23.9a1.549,1.549,0,0,0-.405.7L493,221.115a1.553,1.553,0,0,0,1.9,1.9l12.874-3.416a1.548,1.548,0,0,0,.7-.4L520.8,206.875Zm10.632-31.741-.858.858-7.271-7.271.866-.863a4.666,4.666,0,0,1,6.583.006l.681.681a4.664,4.664,0,0,1,0,6.589Zm0,0" transform="translate(-470 -161)"/>
            </g>
          </g>
        </g>
        <g id="그룹_4045" data-name="그룹 4045" transform="translate(9.349 10.668)">
          <g id="사각형_3165" data-name="사각형 3165" class="cls-9" transform="translate(0)">
            <rect class="cls-13" width="11.048" height="11.048" rx="1.8"/>
            <rect class="cls-1" x="1.5" y="1.5" width="8.048" height="8.048" rx="0.3"/>
          </g>
          <g id="그룹_4043" data-name="그룹 4043" transform="translate(16.391 1.872)">
            <path id="패스_3681" data-name="패스 3681" class="cls-10" d="M536.5,11691.938h15.066" transform="translate(-536.5 -11691.938)"/>
            <path id="패스_3682" data-name="패스 3682" class="cls-10" d="M536.5,11691.938h8.58" transform="translate(-536.5 -11685.337)"/>
          </g>
          <g id="그룹_4044" data-name="그룹 4044" transform="translate(1.871 19.031)">
            <path id="패스_3681-2" data-name="패스 3681" class="cls-10" d="M536.5,11691.938h20.644" transform="translate(-536.5 -11691.938)"/>
            <path id="패스_3682-2" data-name="패스 3682" class="cls-10" d="M536.5,11691.938h11.394" transform="translate(-536.5 -11685.337)"/>
            <path id="패스_3683" data-name="패스 3683" class="cls-10" d="M536.5,11691.938h7.551" transform="translate(-536.5 -11678.739)"/>
          </g>
        </g>
      </g>
    </g>
    <path id="합치기_27" data-name="합치기 27" class="cls-5" d="M759.849,340.436v-5.577h-5.577a.62.62,0,1,1,0-1.24h5.577v-5.577a.62.62,0,1,1,1.239,0v5.577h5.578a.62.62,0,1,1,0,1.24h-5.578v5.577a.62.62,0,1,1-1.239,0Z" transform="translate(-14.336 -1.882)"/>
    <path id="합치기_41" data-name="합치기 41" class="cls-5" d="M607.022,473.963l5.17-5.17-5.17-5.169a.666.666,0,0,1,.941-.942l5.17,5.17,5.17-5.17a.666.666,0,0,1,.941.942l-5.17,5.169,5.17,5.17a.665.665,0,0,1-.941.941l-5.17-5.169-5.17,5.169a.665.665,0,1,1-.941-.941Z" transform="translate(-2.691 -12.596)"/>
    <g id="타원_278" data-name="타원 278" transform="translate(849.771 360.996)">
      <circle id="타원_1537" data-name="타원 1537" class="cls-1" cx="8.181" cy="8.181" r="8.181"/>
      <circle id="타원_1538" data-name="타원 1538" class="cls-11" cx="6.136" cy="6.136" r="6.136" transform="translate(2.045 2.045)"/>
    </g>
    <g id="타원_279" data-name="타원 279" transform="translate(833.409 381.451)">
      <circle id="타원_1539" data-name="타원 1539" class="cls-1" cx="4.772" cy="4.772" r="4.772"/>
      <circle id="타원_1540" data-name="타원 1540" class="cls-4" cx="3.409" cy="3.409" r="3.409" transform="translate(1.364 1.364)"/>
    </g>
    <g id="타원_1485" data-name="타원 1485" transform="translate(593.404 468.724)">
      <circle id="타원_1541" data-name="타원 1541" class="cls-1" cx="4.772" cy="4.772" r="4.772"/>
      <circle id="타원_1542" data-name="타원 1542" class="cls-12" cx="4.091" cy="4.091" r="4.091" transform="translate(0.682 0.682)"/>
    </g>
    <rect id="사각형_2818" data-name="사각형 2818" class="cls-1" width="300" height="225" transform="translate(572.951 303.723)"/>
  </g>
</svg>
