<svg xmlns="http://www.w3.org/2000/svg" width="30" height="30" viewBox="0 0 30 30">
  <defs>
    <style>
      .cls-1, .cls-2, .cls-4 {
        fill: none;
      }

      .cls-1 {
        stroke: #774cd7;
      }

      .cls-1, .cls-2 {
        stroke-miterlimit: 10;
      }

      .cls-2 {
        stroke: #37354e;
      }

      .cls-3 {
        fill: #774cd7;
      }
    </style>
  </defs>
  <g id="ico_list_trip_big" transform="translate(112.071 -61.4)">
    <g id="그룹_4437" data-name="그룹 4437">
      <g id="그룹_4436" data-name="그룹 4436">
        <line id="선_43" data-name="선 43" class="cls-1" x1="1.76" y2="5.133" transform="translate(-105.77 65.963)"/>
        <line id="선_44" data-name="선 44" class="cls-1" x1="5.133" y2="1.76" transform="translate(-92.126 82.98)"/>
        <path id="패스_3764" data-name="패스 3764" class="cls-2" d="M-86.471,85.532l-2.324-12.876,4.275-4.275c2.991-2.991-1.541-7.523-4.532-4.532l-4.275,4.274L-106.2,65.8c-3.112-.777-4.578,2.882-1.79,4.1l8.5,4.394-4.664,4.663h-4.225a2.026,2.026,0,1,0,0,4.035h4.723v4.723a2.026,2.026,0,1,0,4.035,0V83.489l4.663-4.663,4.394,8.5C-89.354,90.111-85.694,88.644-86.471,85.532Z"/>
      </g>
      <circle id="타원_1647" data-name="타원 1647" class="cls-3" cx="0.693" cy="0.693" r="0.693" transform="translate(-90.972 67.818)"/>
      <circle id="타원_1648" data-name="타원 1648" class="cls-3" cx="0.693" cy="0.693" r="0.693" transform="translate(-92.578 69.424)"/>
      <circle id="타원_1649" data-name="타원 1649" class="cls-3" cx="0.693" cy="0.693" r="0.693" transform="translate(-94.12 70.966)"/>
    </g>
    <g id="그룹_4438" data-name="그룹 4438">
      <rect id="사각형_3425" data-name="사각형 3425" class="cls-4" width="30" height="30" transform="translate(-112.071 61.4)"/>
    </g>
  </g>
</svg>
