<svg id="ico_list_hobby_big" xmlns="http://www.w3.org/2000/svg" width="30" height="30" viewBox="0 0 30 30">
  <defs>
    <style>
      .cls-1, .cls-2, .cls-3, .cls-4 {
        fill: none;
      }

      .cls-2, .cls-4 {
        stroke: #6839d3;
      }

      .cls-2 {
        stroke-linecap: round;
      }

      .cls-2, .cls-3, .cls-4 {
        stroke-miterlimit: 10;
      }

      .cls-3 {
        stroke: #37454e;
      }

      .cls-5 {
        fill: #6839d3;
      }
    </style>
  </defs>
  <g id="그룹_4055" data-name="그룹 4055">
    <rect id="사각형_3173" data-name="사각형 3173" class="cls-1" width="30" height="30" transform="translate(0 0)"/>
  </g>
  <g id="그룹_4062" data-name="그룹 4062">
    <path id="패스_3670" data-name="패스 3670" class="cls-2" d="M13.4,12.918v-4.2a1.255,1.255,0,0,1,1.254-1.254h.319A1.618,1.618,0,0,0,16.6,5.849V1"/>
    <path id="패스_3671" data-name="패스 3671" class="cls-3" d="M21.414,29l2.183-.029A3.239,3.239,0,0,0,26.749,25.2l-1.6-9.575a3.239,3.239,0,0,0-3.195-2.707H8.042a3.239,3.239,0,0,0-3.195,2.707L3.251,25.2A3.239,3.239,0,0,0,6.4,28.971L8.586,29a3.239,3.239,0,0,0,3.237-2.707h0a3.24,3.24,0,0,1,3.195-2.706h-.036a3.24,3.24,0,0,1,3.195,2.706h0A3.239,3.239,0,0,0,21.414,29Z"/>
    <g id="그룹_4061" data-name="그룹 4061">
      <g id="그룹_4057" data-name="그룹 4057">
        <g id="그룹_4056" data-name="그룹 4056">
          <path id="패스_3672" data-name="패스 3672" class="cls-4" d="M11.673,19.381h0Z"/>
          <path id="패스_3673" data-name="패스 3673" class="cls-4" d="M9.337,21.718v0Z"/>
        </g>
      </g>
      <g id="그룹_4060" data-name="그룹 4060">
        <g id="그룹_4058" data-name="그룹 4058">
          <circle id="타원_1559" data-name="타원 1559" class="cls-5" cx="0.965" cy="0.965" r="0.965" transform="translate(19.141 16.317)"/>
          <circle id="타원_1560" data-name="타원 1560" class="cls-5" cx="0.965" cy="0.965" r="0.965" transform="translate(19.141 20.176)"/>
        </g>
        <g id="그룹_4059" data-name="그룹 4059">
          <circle id="타원_1561" data-name="타원 1561" class="cls-5" cx="0.965" cy="0.965" r="0.965" transform="translate(21.07 18.247)"/>
          <circle id="타원_1562" data-name="타원 1562" class="cls-5" cx="0.965" cy="0.965" r="0.965" transform="translate(17.211 18.247)"/>
        </g>
      </g>
    </g>
  </g>
</svg>
