<svg id="ico_list_pet_big" xmlns="http://www.w3.org/2000/svg" width="30" height="30" viewBox="0 0 30 30">
  <defs>
    <style>
      .cls-1, .cls-9 {
        fill: #37354e;
      }

      .cls-2, .cls-3, .cls-4, .cls-5, .cls-6 {
        fill: none;
      }

      .cls-3 {
        stroke: #6839d3;
      }

      .cls-3, .cls-4 {
        stroke-linecap: round;
      }

      .cls-3, .cls-4, .cls-5, .cls-6 {
        stroke-miterlimit: 10;
      }

      .cls-3, .cls-4, .cls-5 {
        stroke-width: 0.9px;
      }

      .cls-4, .cls-5 {
        stroke: #37354e;
      }

      .cls-7 {
        fill: #fff;
        stroke: #707070;
        opacity: 0;
      }

      .cls-8, .cls-9 {
        stroke: none;
      }
    </style>
  </defs>
  <g id="icon" transform="translate(-679.941 -1202)">
    <g id="그룹_4018" data-name="그룹 4018">
      <g id="그룹_4015" data-name="그룹 4015">
        <g id="그룹_4014" data-name="그룹 4014">
          <circle id="타원_1538" data-name="타원 1538" class="cls-1" cx="1.126" cy="1.126" r="1.126" transform="translate(688.531 1214.074)"/>
        </g>
      </g>
      <g id="그룹_4017" data-name="그룹 4017">
        <g id="그룹_4016" data-name="그룹 4016">
          <circle id="타원_1539" data-name="타원 1539" class="cls-1" cx="1.126" cy="1.126" r="1.126" transform="translate(699.101 1214.074)"/>
        </g>
      </g>
    </g>
    <g id="그룹_4020" data-name="그룹 4020">
      <g id="그룹_4019" data-name="그룹 4019">
        <path id="패스_3645" data-name="패스 3645" class="cls-2" d="M694.916,1221.086a1.158,1.158,0,0,1,.026.12,1.142,1.142,0,0,1,.026-.12Z"/>
        <path id="패스_3646" data-name="패스 3646" class="cls-3" d="M692.022,1221.206a1.465,1.465,0,0,0,2.92,0"/>
        <path id="패스_3647" data-name="패스 3647" class="cls-3" d="M697.862,1221.206a1.465,1.465,0,0,1-2.92,0"/>
        <path id="패스_3648" data-name="패스 3648" class="cls-4" d="M694.942,1221.206"/>
      </g>
    </g>
    <path id="사각형_3156" data-name="사각형 3156" class="cls-5" d="M4.5,0H6.944a4.5,4.5,0,0,1,4.5,4.5v0A4.046,4.046,0,0,1,7.4,8.546H4.046A4.046,4.046,0,0,1,0,4.5v0A4.5,4.5,0,0,1,4.5,0Z" transform="translate(689.22 1216.872)"/>
    <g id="패스_3649" data-name="패스 3649" class="cls-6">
      <path class="cls-8" d="M696.4,1203.778h0a4.011,4.011,0,0,1,4.876,1.64h0a4.1,4.1,0,0,0,2.354,1.77h0a4.218,4.218,0,0,1,3.013,4.294h0a4.328,4.328,0,0,0,.9,2.864h0a4.349,4.349,0,0,1,0,5.308h0a4.328,4.328,0,0,0-.9,2.864h0a4.218,4.218,0,0,1-3.013,4.294h0a4.1,4.1,0,0,0-2.354,1.77h0a4.011,4.011,0,0,1-4.876,1.64h0a3.96,3.96,0,0,0-2.909,0h0a4.01,4.01,0,0,1-4.875-1.64h0a4.1,4.1,0,0,0-2.354-1.77h0a4.217,4.217,0,0,1-3.013-4.294h0a4.329,4.329,0,0,0-.9-2.864h0a4.346,4.346,0,0,1,0-5.308h0a4.329,4.329,0,0,0,.9-2.864h0a4.217,4.217,0,0,1,3.013-4.294h0a4.1,4.1,0,0,0,2.354-1.77h0a4.01,4.01,0,0,1,4.875-1.64h0A3.96,3.96,0,0,0,696.4,1203.778Z"/>
      <path class="cls-9" d="M 692.0331420898438 1204.39990234375 C 690.9588012695312 1204.39990234375 689.9645385742188 1204.9599609375 689.373291015625 1205.89794921875 C 688.7054443359375 1206.957153320312 687.6852416992188 1207.723022460938 686.5009155273438 1208.054565429688 C 685.0599975585938 1208.45849609375 684.0687255859375 1209.881713867188 684.1439208984375 1211.438720703125 C 684.2044067382812 1212.691284179688 683.8180541992188 1213.920043945312 683.05615234375 1214.898803710938 C 682.1083374023438 1216.116333007812 682.1083374023438 1217.883666992188 683.0562133789062 1219.101196289062 C 683.8180541992188 1220.079956054688 684.2044067382812 1221.308715820312 684.1439208984375 1222.561401367188 C 684.0687255859375 1224.118286132812 685.0599975585938 1225.54150390625 686.5006103515625 1225.9453125 C 687.6852416992188 1226.276977539062 688.7054443359375 1227.042846679688 689.3734130859375 1228.102172851562 C 689.9645385742188 1229.0400390625 690.9588012695312 1229.60009765625 692.0331420898438 1229.60009765625 C 692.4171752929688 1229.60009765625 692.7950439453125 1229.527709960938 693.1572265625 1229.384643554688 C 693.72900390625 1229.159423828125 694.3294677734375 1229.045288085938 694.94189453125 1229.045288085938 C 695.554443359375 1229.045288085938 696.1547241210938 1229.159545898438 696.7264404296875 1229.384887695312 C 697.0880737304688 1229.527709960938 697.4661865234375 1229.60009765625 697.8502807617188 1229.60009765625 C 698.9244384765625 1229.60009765625 699.9190063476562 1229.039916992188 700.5106811523438 1228.101928710938 C 701.1785888671875 1227.042846679688 702.1987915039062 1226.276977539062 703.3829345703125 1225.945434570312 C 704.8239135742188 1225.541259765625 705.8152465820312 1224.118041992188 705.7400512695312 1222.561279296875 C 705.6795654296875 1221.308715820312 706.06591796875 1220.079956054688 706.82763671875 1219.101440429688 C 707.7747802734375 1217.8837890625 707.7747802734375 1216.1162109375 706.827880859375 1214.898803710938 C 706.06591796875 1213.920043945312 705.6795654296875 1212.691284179688 705.7400512695312 1211.438598632812 C 705.8152465820312 1209.881958007812 704.8239135742188 1208.458740234375 703.3833618164062 1208.0546875 C 702.1987915039062 1207.723022460938 701.1785888671875 1206.957153320312 700.5107421875 1205.898193359375 C 699.9189453125 1204.9599609375 698.9243774414062 1204.39990234375 697.850341796875 1204.39990234375 C 697.4661865234375 1204.400024414062 697.0880126953125 1204.472290039062 696.72607421875 1204.615234375 C 696.1547241210938 1204.840454101562 695.554443359375 1204.954711914062 694.94189453125 1204.954711914062 C 694.3294677734375 1204.954711914062 693.72900390625 1204.840576171875 693.1563720703125 1204.614990234375 C 692.7950439453125 1204.472290039062 692.4171752929688 1204.39990234375 692.0331420898438 1204.39990234375 M 692.033203125 1203.5 C 692.519287109375 1203.5 693.0112915039062 1203.590087890625 693.4869995117188 1203.777954101562 C 693.9555053710938 1203.96240234375 694.44873046875 1204.0546875 694.94189453125 1204.0546875 C 695.4349975585938 1204.0546875 695.927978515625 1203.96240234375 696.39599609375 1203.777954101562 C 696.8718872070312 1203.590087890625 697.3642578125 1203.5 697.8502807617188 1203.5 C 699.19873046875 1203.499877929688 700.4994506835938 1204.193359375 701.27197265625 1205.41796875 C 701.8200073242188 1206.286987304688 702.6580200195312 1206.9169921875 703.6259765625 1207.18798828125 C 705.47998046875 1207.7080078125 706.7349853515625 1209.494995117188 706.6389770507812 1211.482055664062 C 706.5889892578125 1212.517944335938 706.9089965820312 1213.537963867188 707.5380249023438 1214.345947265625 C 708.7429809570312 1215.89501953125 708.7429809570312 1218.10498046875 707.5380249023438 1219.654052734375 C 706.9089965820312 1220.462036132812 706.5889892578125 1221.482055664062 706.6389770507812 1222.517944335938 C 706.7349853515625 1224.505004882812 705.47998046875 1226.2919921875 703.6259765625 1226.81201171875 C 702.6580200195312 1227.0830078125 701.8200073242188 1227.713012695312 701.27197265625 1228.58203125 C 700.49951171875 1229.806518554688 699.1986083984375 1230.5 697.8502807617188 1230.5 C 697.3641357421875 1230.5 696.8719482421875 1230.409912109375 696.39599609375 1230.222045898438 C 695.927978515625 1230.03759765625 695.4349975585938 1229.9453125 694.94189453125 1229.9453125 C 694.44873046875 1229.9453125 693.9555053710938 1230.03759765625 693.4869995117188 1230.222045898438 C 693.0114135742188 1230.409912109375 692.5191650390625 1230.5 692.033203125 1230.5 C 690.6849365234375 1230.5 689.3837890625 1229.806640625 688.6119995117188 1228.58203125 C 688.0640258789062 1227.713012695312 687.2260131835938 1227.0830078125 686.2579956054688 1226.81201171875 C 684.4030151367188 1226.2919921875 683.1489868164062 1224.505004882812 683.2449951171875 1222.517944335938 C 683.2949829101562 1221.482055664062 682.9749755859375 1220.462036132812 682.3460083007812 1219.654052734375 C 681.1400146484375 1218.10498046875 681.1400146484375 1215.89501953125 682.3460083007812 1214.345947265625 C 682.9749755859375 1213.537963867188 683.2949829101562 1212.517944335938 683.2449951171875 1211.482055664062 C 683.1489868164062 1209.494995117188 684.4030151367188 1207.7080078125 686.2579956054688 1207.18798828125 C 687.2260131835938 1206.9169921875 688.0640258789062 1206.286987304688 688.6119995117188 1205.41796875 C 689.3837280273438 1204.193481445312 690.68505859375 1203.5 692.033203125 1203.5 Z"/>
    </g>
    <path id="패스_3650" data-name="패스 3650" class="cls-1" d="M696.164,1216.872H693.72a4.278,4.278,0,0,0-.47.048,1.692,1.692,0,0,0,3.383,0A4.234,4.234,0,0,0,696.164,1216.872Z"/>
  </g>
  <g id="사각형_2239" data-name="사각형 2239" class="cls-7">
    <rect class="cls-8" width="30" height="30"/>
    <rect class="cls-2" x="0.5" y="0.5" width="29" height="29"/>
  </g>
</svg>
