<svg xmlns="http://www.w3.org/2000/svg" width="30" height="30" viewBox="0 0 30 30">
  <defs>
    <style>
      .cls-1, .cls-2, .cls-3 {
        fill: none;
      }

      .cls-1 {
        stroke: #774cd7;
      }

      .cls-1, .cls-2 {
        stroke-miterlimit: 10;
      }

      .cls-2 {
        stroke: #37354e;
      }
    </style>
  </defs>
  <g id="ico_list_gifticon_big" transform="translate(71.026 -61.4)">
    <g id="그룹_4442" data-name="그룹 4442">
      <g id="그룹_4441" data-name="그룹 4441">
        <g id="그룹_4440" data-name="그룹 4440">
          <line id="선_45" data-name="선 45" class="cls-1" y2="2.93" transform="translate(-48.479 68.293)"/>
          <line id="선_46" data-name="선 46" class="cls-1" y2="2.93" transform="translate(-48.479 72.721)"/>
          <line id="선_47" data-name="선 47" class="cls-1" y2="2.93" transform="translate(-48.479 77.149)"/>
          <line id="선_48" data-name="선 48" class="cls-1" y2="2.93" transform="translate(-48.479 81.577)"/>
        </g>
        <path id="패스_3765" data-name="패스 3765" class="cls-2" d="M-42.265,68.311H-69.788v4.934c.048,0,.092-.014.14-.014a3.182,3.182,0,0,1,3.226,3.135A3.182,3.182,0,0,1-69.648,79.5c-.048,0-.092-.012-.14-.014v4.934h27.523"/>
        <path id="패스_3766" data-name="패스 3766" class="cls-2" d="M-69.788,68.311h27.523v4.934c-.047,0-.092-.014-.139-.014a3.182,3.182,0,0,0-3.227,3.135A3.182,3.182,0,0,0-42.4,79.5c.047,0,.092-.012.139-.014v4.934H-69.788"/>
      </g>
      <path id="패스_3767" data-name="패스 3767" class="cls-1" d="M-57.2,73.278l-1.056,1.18-.978-1.18c-1.723-2.078-4.9.4-3.173,2.483l1.59,1.927,0,0,.7.839,1.886,2.259.023.027,4.185-5.057C-52.308,73.683-55.482,71.2-57.2,73.278Z"/>
    </g>
    <g id="그룹_4443" data-name="그룹 4443">
      <rect id="사각형_3426" data-name="사각형 3426" class="cls-3" width="30" height="30" transform="translate(-71.026 61.4)"/>
    </g>
  </g>
</svg>
