<svg id="ico_list_date_big" xmlns="http://www.w3.org/2000/svg" width="30" height="30" viewBox="0 0 30 30">
  <defs>
    <style>
      .cls-1, .cls-2, .cls-3 {
        fill: none;
      }

      .cls-2 {
        stroke: #6839d3;
        stroke-miterlimit: 10;
      }

      .cls-3 {
        stroke: #37454e;
        stroke-linecap: round;
        stroke-linejoin: round;
      }
    </style>
  </defs>
  <g id="그룹_4048" data-name="그룹 4048">
    <rect id="사각형_3171" data-name="사각형 3171" class="cls-1" width="30" height="30" transform="translate(0 0)"/>
  </g>
  <g id="그룹_4050" data-name="그룹 4050">
    <path id="패스_3665" data-name="패스 3665" class="cls-2" d="M14.771,11.28a.289.289,0,0,0,.458,0l4.047-5.225a2.263,2.263,0,0,0-.629-3.294,2.329,2.329,0,0,0-3.043.648l-.381.506a.28.28,0,0,1-.446,0L14.4,3.409a2.329,2.329,0,0,0-3.043-.648,2.263,2.263,0,0,0-.629,3.294Z"/>
    <g id="그룹_4049" data-name="그룹 4049">
      <circle id="타원_1553" data-name="타원 1553" class="cls-3" cx="4.056" cy="4.056" r="4.056" transform="translate(4.184 12.684)"/>
      <path id="패스_3666" data-name="패스 3666" class="cls-3" d="M1.48,27.556a6.76,6.76,0,1,1,13.52,0"/>
      <circle id="타원_1554" data-name="타원 1554" class="cls-3" cx="4.056" cy="4.056" r="4.056" transform="translate(17.704 12.684)"/>
      <path id="패스_3667" data-name="패스 3667" class="cls-3" d="M15,27.556a6.76,6.76,0,1,1,13.52,0"/>
    </g>
  </g>
</svg>
