<svg xmlns="http://www.w3.org/2000/svg" width="30" height="30" viewBox="0 0 30 30">
  <defs>
    <style>
      .cls-1 {
        fill: #fff;
        opacity: 0;
      }

      .cls-2 {
        fill: #37354e;
      }

      .cls-3 {
        fill: #6839d3;
      }
    </style>
  </defs>
  <g id="ico_list_children_big" transform="translate(0 0.185)">
    <rect id="사각형_2087" data-name="사각형 2087" class="cls-1" width="30" height="30" transform="translate(0 -0.185)"/>
    <g id="그룹_2994" data-name="그룹 2994" transform="translate(-138.625 -841.81)">
      <path id="패스_2374" data-name="패스 2374" class="cls-2" d="M154.125,870.625a13.5,13.5,0,1,1,13.5-13.5A13.515,13.515,0,0,1,154.125,870.625Zm0-26a12.5,12.5,0,1,0,12.5,12.5A12.514,12.514,0,0,0,154.125,844.625Z"/>
      <path id="패스_2375" data-name="패스 2375" class="cls-3" d="M149.792,857.625a1.583,1.583,0,1,1,1.583-1.583A1.586,1.586,0,0,1,149.792,857.625Zm0-2.167a.583.583,0,1,0,.583.584A.585.585,0,0,0,149.792,855.458Z"/>
      <path id="패스_2376" data-name="패스 2376" class="cls-3" d="M158.458,857.625a1.583,1.583,0,1,1,1.584-1.583A1.585,1.585,0,0,1,158.458,857.625Zm0-2.167a.583.583,0,1,0,.584.584A.584.584,0,0,0,158.458,855.458Z"/>
      <path id="패스_2377" data-name="패스 2377" class="cls-3" d="M154.125,865.425c-2.332,0-4.573-1.994-4.668-2.079a.5.5,0,0,1,.669-.743c.02.018,2.054,1.822,4,1.822s3.979-1.8,4-1.822a.5.5,0,0,1,.669.743C158.7,863.431,156.457,865.425,154.125,865.425Z"/>
      <path id="패스_2378" data-name="패스 2378" class="cls-2" d="M154.125,850.583c-1.325,0-2.667-.729-2.667-2.125,0-2.346,2.219-4.592,2.313-4.687a.5.5,0,0,1,.708.708c-.02.019-2.021,2.049-2.021,3.979,0,1.547,3.334,1.547,3.334,0a.5.5,0,0,1,1,0C156.792,849.854,155.45,850.583,154.125,850.583Z"/>
    </g>
  </g>
</svg>
