<svg xmlns="http://www.w3.org/2000/svg" width="22" height="22" viewBox="0 0 22 22">
  <defs>
    <style>
      .cls-1 {
        fill: #37354e;
      }

      .cls-2 {
        fill: #6839d3;
      }

      .cls-3 {
        fill: red;
        opacity: 0;
      }
    </style>
  </defs>
  <g id="ico_list_people_big" transform="translate(0)">
    <g id="그룹_3079" data-name="그룹 3079" transform="translate(0 3.651)">
      <path id="패스_2472" data-name="패스 2472" class="cls-1" d="M54.634,51.637a3.286,3.286,0,1,0-4.577,0,5.491,5.491,0,0,0-1.639,1.222c.185.153.367.31.537.48a4.747,4.747,0,0,1,1.79-1.2,3.171,3.171,0,0,0,3.2,0,4.946,4.946,0,0,1,3.146,4.654c0,.879-2.174,1.622-4.747,1.622-.383,0-.754-.018-1.114-.049.01.163.018.326.018.492a1.633,1.633,0,0,1-.028.241c.37.03.746.046,1.123.046,2.739,0,5.477-.784,5.477-2.352A5.692,5.692,0,0,0,54.634,51.637Zm-.778-.3a2.556,2.556,0,0,1-4.067-2.05,2.556,2.556,0,1,1,4.067,2.05Z" transform="translate(-35.914 -45.27)"/>
      <g id="그룹_3078" data-name="그룹 3078">
        <path id="패스_2473" data-name="패스 2473" class="cls-2" d="M46.614,58.1a7.743,7.743,0,0,0-2.277-5.027c-.171-.169-.352-.327-.537-.48a7.667,7.667,0,0,0-1.7-1.065,4.017,4.017,0,1,0-6.266,0A7.746,7.746,0,0,0,31.3,58.588c0,2.139,3.834,3.208,7.668,3.208,3.685,0,7.36-.991,7.64-2.967a1.633,1.633,0,0,0,.028-.241C46.632,58.423,46.624,58.259,46.614,58.1Zm-10.936-9.08A3.28,3.28,0,1,1,40.689,51.8a3.216,3.216,0,0,1-3.45,0,3.307,3.307,0,0,1-.682-.564A3.262,3.262,0,0,1,35.678,49.017Zm8.3,11.294a15.2,15.2,0,0,1-5.017.756,15.2,15.2,0,0,1-5.017-.756c-.718-.267-1.921-.846-1.921-1.722a7.023,7.023,0,0,1,4.35-6.5,4,4,0,0,0,5.174,0,6.949,6.949,0,0,1,1.787,1.07,7.117,7.117,0,0,1,2.539,4.858c.016.191.025.383.025.577a.921.921,0,0,1-.028.161C45.737,59.534,44.652,60.061,43.981,60.311Z" transform="translate(-31.296 -45)"/>
        <path id="패스_2474" data-name="패스 2474" class="cls-2" d="M40.733,53.158h.022a2.78,2.78,0,0,0,2.644-2.1l-.708-.177a2.048,2.048,0,0,1-1.945,1.549H40.73a1.719,1.719,0,0,1-1.705-1.507l-.724.091A2.45,2.45,0,0,0,40.733,53.158Z" transform="translate(-33.185 -46.586)"/>
      </g>
    </g>
    <rect id="area" class="cls-3" width="22" height="22"/>
  </g>
</svg>
