<svg id="ico_list_letter_big" xmlns="http://www.w3.org/2000/svg" width="30" height="30" viewBox="0 0 30 30">
  <defs>
    <style>
      .cls-1 {
        fill: red;
        opacity: 0;
      }

      .cls-2 {
        fill: #37354e;
      }

      .cls-3 {
        fill: #6839d3;
      }
    </style>
  </defs>
  <rect id="area" class="cls-1" width="30" height="30"/>
  <g id="그룹_3072" data-name="그룹 3072" transform="translate(-58.864 -42.464)">
    <path id="패스_2462" data-name="패스 2462" class="cls-2" d="M86.732,54.291a1.022,1.022,0,0,0-.188-.121l.008-.01-2.887-2.447V46.964a1,1,0,0,0-1-1H76.879l-2.81-2.381a.5.5,0,0,0-.65,0l-2.765,2.379H64.665a.988.988,0,0,0-.948.742.977.977,0,0,0-.052.258v5.011l-2.652,2.281.005.006a.959.959,0,0,0-.354.751v14.95H87.041V55.015A.985.985,0,0,0,86.732,54.291Zm-1.485.074L83.665,55.6V53.024Zm-11.5-9.744,1.585,1.343H72.187Zm-9.083,1.843v.5h18v9.419L76.6,61.118,74.256,59.4a1,1,0,0,0-1.183,0l-2.152,1.579-6.256-4.888V46.964h0Zm-1,6.83v2.013l-1.227-.958Zm-2,14.469V55.017l0,0,2,1.561h0l1,.781,5.418,4.233-4.6,3.374-1.233.9Zm15.479,1.2H61.72l4.09-3h0l1.364-1L70.9,62.23l.838-.614L73.665,60.2h0l2.119,1.554.838.614,3.534,2.592,1.363,1h0l4.09,3Zm8.9-.925-2.969-2.176h0l-1.225-.9-4.406-3.231,5.224-4.081,1-.782h0l2.375-1.856h0Z"/>
    <path id="패스_2032" data-name="패스 2032" class="cls-3" d="M78.173,52.286h-.642l.615-1.71A.456.456,0,0,0,77.863,50l-.034-.01a.509.509,0,0,0-.629.281v.013L75.673,54.53l-1.53-4.248a.538.538,0,0,0-.679-.248.5.5,0,0,0-.272.248l-1.531,4.249-1.53-4.248a.506.506,0,0,0-.62-.3H69.5a.456.456,0,0,0-.324.56l.008.028.615,1.71h-.642a.482.482,0,0,0-.488.48v0a.489.489,0,0,0,.488.444h.975l1.056,2.931a.539.539,0,0,0,.679.247.5.5,0,0,0,.272-.247l1.529-4.251,1.53,4.248a.507.507,0,0,0,.618.3.477.477,0,0,0,.332-.3L77.2,53.206h.972a.465.465,0,0,0,.061-.928.311.311,0,0,0-.061,0Z"/>
  </g>
</svg>
