<svg xmlns="http://www.w3.org/2000/svg" xmlns:xlink="http://www.w3.org/1999/xlink" width="67" height="24" viewBox="0 0 67 24">
  <defs>
    <style>
      .cls-1 {
        fill: url(#linear-gradient);
      }

      .cls-2 {
        fill: #fff;
      }
    </style>
    <linearGradient id="linear-gradient" x1="1" y1="1" x2="0" y2="0.01" gradientUnits="objectBoundingBox">
      <stop offset="0" stop-color="#df66f5"/>
      <stop offset="0.453" stop-color="#9929ed"/>
      <stop offset="1" stop-color="#5e45e5"/>
    </linearGradient>
  </defs>
  <g id="achapick_s" transform="translate(-1307 -339)">
    <rect id="bg" class="cls-1" width="67" height="24" transform="translate(1307 339)"/>
    <path id="패스_3632" data-name="패스 3632" class="cls-2" d="M4.06-3.262c-.966,0-1.61-1.022-1.61-2.94s.644-2.926,1.61-2.926S5.67-8.106,5.67-6.2,5.012-3.262,4.06-3.262Zm0-7.532C2.1-10.794.672-9.03.672-6.2S2.1-1.582,4.06-1.582,7.448-3.36,7.448-6.2,6.006-10.794,4.06-10.794Zm8.512,3.962H10.7V-11.69H8.848V1.2H10.7v-6.51h1.876ZM17.444-8.12h2.562V-9.59H17.458v-1.792H15.61V-9.59H12.992v1.47H15.61v.448A5.549,5.549,0,0,1,12.558-2.59l.994,1.414a5.855,5.855,0,0,0,3-3.486A5.607,5.607,0,0,0,19.39-1.4l.98-1.4a5.366,5.366,0,0,1-2.926-4.872Zm7.308,1.442H22.876v-5H21.028V1.2h1.848V-5.152h1.876Zm3.673-3.891h4.3a3.617,3.617,0,0,1,2.648,1,3.51,3.51,0,0,1,1.014,2.622,3.454,3.454,0,0,1-1.047,2.618,3.783,3.783,0,0,1-2.725,1H30.637V0H28.425Zm2.212,1.75v3.757h1.494a2.089,2.089,0,0,0,1.479-.491,1.807,1.807,0,0,0,.527-1.392,1.8,1.8,0,0,0-.524-1.388,2.086,2.086,0,0,0-1.476-.487ZM39.152,0H36.94V-10.569h2.212Zm5.681.183a4.726,4.726,0,0,1-3.658-1.461,5.7,5.7,0,0,1-1.344-4.01,5.676,5.676,0,0,1,1.348-4,4.728,4.728,0,0,1,3.655-1.461,5.185,5.185,0,0,1,2.289.5,4.157,4.157,0,0,1,1.652,1.406,4.1,4.1,0,0,1,.7,2.073H47.323a2.488,2.488,0,0,0-.839-1.56,2.455,2.455,0,0,0-1.652-.586,2.385,2.385,0,0,0-2,.981A4.261,4.261,0,0,0,42.086-5.3a4.328,4.328,0,0,0,.74,2.67,2.391,2.391,0,0,0,2.014.978,2.527,2.527,0,0,0,1.648-.542,2.4,2.4,0,0,0,.842-1.479h2.153A4.032,4.032,0,0,1,48.041-.861,4.86,4.86,0,0,1,44.833.183ZM52.308,0H50.1V-10.569h2.212V-5.75h.066l3.97-4.819H58.8L54.893-5.881,59.075,0H56.431L53.3-4.417,52.308-3.23Z" transform="translate(1310.828 356.69)"/>
  </g>
</svg>
