<svg xmlns="http://www.w3.org/2000/svg" width="30" height="30" viewBox="0 0 30 30">
  <defs>
    <style>
      .cls-1 {
        fill: #00a9ff;
      }

      .cls-2 {
        fill: #fff;
      }
    </style>
  </defs>
  <g id="btn_share_twitter" transform="translate(-0.242)">
    <rect id="사각형_3115" data-name="사각형 3115" class="cls-1" width="30" height="30" rx="2" transform="translate(0.242)"/>
    <path id="패스_3636" data-name="패스 3636" class="cls-2" d="M593.053,233.119a5.72,5.72,0,0,1-1.752.558,4.015,4.015,0,0,0,1.422-2.1c.017-.056-.033-.106-.074-.077a5.945,5.945,0,0,1-2,.91,3.081,3.081,0,0,0-2.436-1.293c-1.84,0-3.336,1.834-3.336,4.094a5.065,5.065,0,0,0,.086.933,9.034,9.034,0,0,1-6.86-4.253.017.017,0,0,0-.03,0,4.847,4.847,0,0,0-.438,2.03,4.424,4.424,0,0,0,1.426,3.357c.017.015.008.048-.012.046a2.883,2.883,0,0,1-1.413-.49c-.012-.008-.026,0-.026.019a6.791,6.791,0,0,0,.225,1.5,3.665,3.665,0,0,0,2.451,2.532,2.852,2.852,0,0,1-.881.145,2.693,2.693,0,0,1-.6-.07c-.014,0-.026.014-.021.03a3.516,3.516,0,0,0,3.051,2.8c.019,0,.027.031.012.045a5.939,5.939,0,0,1-4.1,1.711,5.591,5.591,0,0,1-.794-.056,8.209,8.209,0,0,0,11.364-.974,12.883,12.883,0,0,0,3.016-6.364,13.908,13.908,0,0,0,.228-2.472c0-.176,0-.354-.011-.529a7.752,7.752,0,0,0,1.562-1.939C593.145,233.162,593.1,233.095,593.053,233.119Z" transform="translate(-569.977 -223.347)"/>
  </g>
</svg>
