<svg xmlns="http://www.w3.org/2000/svg" width="26" height="26" viewBox="0 0 26 26">
  <defs>
    <style>
      .cls-1 {
        fill: #37354e;
      }

      .cls-2 {
        fill: none;
      }
    </style>
  </defs>
  <g id="btn_menu" transform="translate(-333 -40)">
    <path id="합치기_16" data-name="합치기 16" class="cls-1" d="M-830,16a1,1,0,0,1-1-1,1,1,0,0,1,1-1h18a1,1,0,0,1,1,1,1,1,0,0,1-1,1Zm0-6a1,1,0,0,1-1-1,1,1,0,0,1,1-1h18a1,1,0,0,1,1,1,1,1,0,0,1-1,1Zm0-6a1,1,0,0,1-1-1,1,1,0,0,1,1-1h18a1,1,0,0,1,1,1,1,1,0,0,1-1,1Z" transform="translate(1167 44)"/>
    <rect id="사각형_2027" data-name="사각형 2027" class="cls-2" width="26" height="26" transform="translate(333 40)"/>
  </g>
</svg>
