<svg xmlns="http://www.w3.org/2000/svg" width="18" height="18" viewBox="0 0 18 18">
  <defs>
    <style>
      .cls-1 {
        fill: none;
      }

      .cls-2 {
        fill: #9b9aa6;
      }
    </style>
  </defs>
  <g id="btn_page_first" transform="translate(1 1)">
    <rect id="사각형_3028" data-name="사각형 3028" class="cls-1" width="18" height="18" transform="translate(-1 -1)"/>
    <g id="그룹_3975" data-name="그룹 3975" transform="translate(2.503 3.001)">
      <path id="합치기_88" data-name="합치기 88" class="cls-2" d="M.178,9.684a.607.607,0,0,1,0-.858L4.073,4.932.178,1.036A.606.606,0,0,1,1.036.178L5.321,4.464a.605.605,0,0,1,.176.467.605.605,0,0,1-.176.467L1.035,9.684a.606.606,0,0,1-.857,0Z" transform="translate(10.497 9.861) rotate(180)"/>
      <path id="합치기_89" data-name="합치기 89" class="cls-2" d="M.178,9.684a.607.607,0,0,1,0-.858L4.073,4.932.178,1.036A.606.606,0,0,1,1.036.178L5.321,4.464a.605.605,0,0,1,.176.467.605.605,0,0,1-.176.467L1.035,9.684a.606.606,0,0,1-.857,0Z" transform="translate(5.497 9.861) rotate(180)"/>
    </g>
  </g>
</svg>
