<svg xmlns="http://www.w3.org/2000/svg" width="18" height="18" viewBox="0 0 18 18">
  <defs>
    <style>
      .cls-1 {
        fill: #9b9aa6;
      }

      .cls-2 {
        fill: none;
      }
    </style>
  </defs>
  <g id="btn_page_next" transform="translate(-802 -807)">
    <path id="합치기_88" data-name="합치기 88" class="cls-1" d="M-9771.615,9474.891a.61.61,0,0,1,0-.858l3.9-3.895-3.9-3.895a.61.61,0,0,1,0-.858.61.61,0,0,1,.858,0l4.284,4.287a.6.6,0,0,1,.177.466.606.606,0,0,1-.177.469l-4.284,4.284a.6.6,0,0,1-.429.179A.606.606,0,0,1-9771.615,9474.891Z" transform="translate(10580.292 -8654.207)"/>
    <rect id="사각형_3028" data-name="사각형 3028" class="cls-2" width="18" height="18" transform="translate(802 807)"/>
  </g>
</svg>
