<svg xmlns="http://www.w3.org/2000/svg" width="12" height="12" viewBox="0 0 12 12">
  <defs>
    <style>
      .cls-1 {
        fill: #37354e;
        fill-rule: evenodd;
      }
    </style>
  </defs>
  <g id="ic_textcheck_refresh" transform="translate(12 12) rotate(180)">
    <g id="그룹_3386" data-name="그룹 3386" transform="translate(0 0)">
      <path id="패스_3465" data-name="패스 3465" class="cls-1" d="M11.577,0H10.054a.216.216,0,0,0-.209.159,3.871,3.871,0,0,1-.438.847A3.553,3.553,0,0,1,7.959,2.311,4.425,4.425,0,0,1,6,2.77a3.338,3.338,0,0,1-1.447-.265,3.578,3.578,0,0,1-1.257-.741L4.341.794A.383.383,0,0,0,4.494.459.424.424,0,0,0,4.341.124.564.564,0,0,0,4.018,0H.5A.686.686,0,0,0,.133.124.472.472,0,0,0,0,.459V3.722a.473.473,0,0,0,.133.336A.683.683,0,0,0,.5,4.181a.583.583,0,0,0,.362-.124l.991-.934a6.732,6.732,0,0,0,1.9,1.128,7.447,7.447,0,0,0,2.209.371,5.958,5.958,0,0,0,3.732-1.2A5.6,5.6,0,0,0,11.806.3V.229A.186.186,0,0,0,11.73.054.512.512,0,0,0,11.577,0Z" transform="translate(0 7.378)"/>
      <path id="패스_3466" data-name="패스 3466" class="cls-1" d="M11.725.6a.471.471,0,0,0-.362-.176A.538.538,0,0,0,11,.6l-1.009.9A6.263,6.263,0,0,0,8.07.406,5.965,5.965,0,0,0,5.863,0a6.123,6.123,0,0,0-3.75,1.2A5.7,5.7,0,0,0,0,4.322v.071c0,.07.038.088.076.159a.306.306,0,0,0,.191.07H1.809a.244.244,0,0,0,.228-.159,4.046,4.046,0,0,1,.438-.847A3.445,3.445,0,0,1,3.921,2.311a4.364,4.364,0,0,1,1.941-.476A3.991,3.991,0,0,1,8.584,2.84l-1.046.97a.476.476,0,0,0-.19.335.419.419,0,0,0,.19.335.349.349,0,0,0,.323.141h3.5a.443.443,0,0,0,.362-.141.512.512,0,0,0,.152-.335V.9a.464.464,0,0,0-.152-.3Z" transform="translate(0.123 0)"/>
    </g>
  </g>
</svg>
