<svg xmlns="http://www.w3.org/2000/svg" width="12" height="12" viewBox="0 0 12 12">
  <defs>
    <style>
      .cls-1 {
        fill: #37354e;
      }
    </style>
  </defs>
  <g id="ic_textcheck_sound" transform="translate(-919 -468)">
    <path id="패스_3684" data-name="패스 3684" class="cls-1" d="M389.124,613.313a.657.657,0,0,1-.463-.188.634.634,0,0,1,0-.909,4.448,4.448,0,0,0,0-6.363.635.635,0,0,1,0-.909.663.663,0,0,1,.925,0,5.711,5.711,0,0,1,0,8.181A.657.657,0,0,1,389.124,613.313ZM386.8,612.1a.658.658,0,0,1-.463-.189.634.634,0,0,1,0-.909,2.753,2.753,0,0,0,0-3.939.635.635,0,0,1,0-.909.663.663,0,0,1,.926,0,4.023,4.023,0,0,1,0,5.757A.658.658,0,0,1,386.8,612.1Zm-2.014-8.869c.35-.344.636-.228.636.259v11.087c0,.486-.287.6-.636.259l-3.291-3.231h-2.182v-5.142h2.182Z" transform="translate(539.688 -135.034)"/>
  </g>
</svg>
