<svg xmlns="http://www.w3.org/2000/svg" width="100" height="45" viewBox="0 0 100 45">
  <defs>
    <style>
      .cls-1 {
        fill: #fff;
        opacity: 0;
      }

      .cls-2 {
        fill: #6839d3;
      }
    </style>
  </defs>
  <g id="m_err_logo" transform="translate(-318.328 -423.287)">
    <rect id="사각형_2824" data-name="사각형 2824" class="cls-1" width="100" height="45" transform="translate(318.328 423.287)"/>
    <path id="패스_1710" data-name="패스 1710" class="cls-2" d="M335.274,478.426a15.546,15.546,0,1,0-15.453-15.748v.4A15.5,15.5,0,0,0,335.274,478.426Zm0-24.608a9.062,9.062,0,1,1-9.011,9.062A9.047,9.047,0,0,1,335.274,453.818Z" transform="translate(0.507 -15.726)"/>
    <path id="패스_1711" data-name="패스 1711" class="cls-2" d="M455.012,486.819V473.546H458.5a3.223,3.223,0,1,0,0-6.447h-3.492v-4.675a3.225,3.225,0,0,0-6.447,0v24.395a3.225,3.225,0,0,0,6.447,0Z" transform="translate(-93.653 -24.309)"/>
    <path id="패스_1712" data-name="패스 1712" class="cls-2" d="M538.409,437.894h-7.117a36.8,36.8,0,0,0-.435-4.513,3.224,3.224,0,1,0-6.347,1.136,31.064,31.064,0,0,1,.32,3.377h-7.605a3.115,3.115,0,0,0-3.107,3.123v.234a3.115,3.115,0,0,0,3.107,3.123h7.37c-.706,5.655-2.987,12.329-9.367,15.938a3.242,3.242,0,0,0,1.584,6.063,3.194,3.194,0,0,0,1.578-.417c6.877-3.89,11.208-10.824,12.524-20.052.074-.518.135-1.029.187-1.532h7.308a3.115,3.115,0,0,0,3.107-3.123v-.234A3.115,3.115,0,0,0,538.409,437.894Z" transform="translate(-141.207 -3.571)"/>
    <ellipse id="타원_258" data-name="타원 258" class="cls-2" cx="4.567" cy="4.567" rx="4.567" ry="4.567" transform="translate(389.027 452.999)"/>
    <path id="패스_1713" data-name="패스 1713" class="cls-2" d="M640,451.075h-3.492V440.549a3.223,3.223,0,1,0-6.447,0v30.23a3.223,3.223,0,1,0,6.447,0V457.553H640a3.239,3.239,0,0,0,0-6.478Z" transform="translate(-226.398 -8.394)"/>
    <ellipse id="타원_259" data-name="타원 259" class="cls-2" cx="3.223" cy="3.223" rx="3.223" ry="3.223" transform="translate(354.912 425.692)"/>
  </g>
</svg>
