<svg xmlns="http://www.w3.org/2000/svg" xmlns:xlink="http://www.w3.org/1999/xlink" width="249" height="187" viewBox="0 0 249 187">
  <defs>
    <style>
      .cls-1 {
        fill: #f7f8fc;
      }

      .cls-11, .cls-2, .cls-3 {
        fill: #fff;
      }

      .cls-11, .cls-12, .cls-2, .cls-5, .cls-6, .cls-9 {
        stroke: #37354e;
      }

      .cls-2, .cls-6 {
        stroke-width: 2px;
      }

      .cls-4 {
        fill: #dccbfc;
      }

      .cls-10, .cls-12, .cls-15, .cls-5, .cls-6, .cls-8, .cls-9 {
        fill: none;
      }

      .cls-5, .cls-8 {
        stroke-width: 3px;
      }

      .cls-14, .cls-7 {
        fill: #37354e;
      }

      .cls-8 {
        stroke: #6839d3;
      }

      .cls-11, .cls-12 {
        stroke-width: 2.4px;
      }

      .cls-12 {
        stroke-linecap: round;
      }

      .cls-13, .cls-14 {
        stroke: none;
      }

      .cls-15 {
        clip-path: url(#clip);
      }
    </style>
    <clipPath id="clip">
      <use xlink:href="#fill"/>
    </clipPath>
  </defs>
  <g id="m_img_center_s" transform="translate(-1033.011 -233.303)">
    <path id="패스_2091" data-name="패스 2091" class="cls-1" d="M2341.144,2473.625c10.939,11.728,0,30.315,0,30.315s-8.545,31.8,21.43,29.173,51.188-9.974,81.044,0,28.243-29.814,44.055-36.7,34.373-19.412,31.02-40.665-22.9-11.419-15.087-47.094-37.845-27.195-68-29.283-46.124-37.139-73.028-19.047-4.062,41.059-35.106,48.331-32.608,18.551-30.552,34.27S2330.2,2461.9,2341.144,2473.625Z" transform="translate(-1254.902 -2118.963)"/>
    <g id="그룹_2657" data-name="그룹 2657" transform="translate(1086.177 278.551)">
      <g id="사각형_2104" data-name="사각형 2104" class="cls-2" transform="translate(-0.166 -0.248)">
        <path class="cls-13" d="M10,0H138a10,10,0,0,1,10,10V85a0,0,0,0,1,0,0H0a0,0,0,0,1,0,0V10A10,10,0,0,1,10,0Z"/>
        <path class="cls-10" d="M10,1H138a9,9,0,0,1,9,9V83a1,1,0,0,1-1,1H2a1,1,0,0,1-1-1V10A9,9,0,0,1,10,1Z"/>
      </g>
      <g id="패스_1869" data-name="패스 1869" class="cls-3" transform="translate(58.368 97.751)">
        <path class="cls-13" d="M 31.76786041259766 19.95624160766602 L 1.320938587188721 19.95624160766602 L 6.665748119354248 1.000000834465027 L 26.42305946350098 1.000000834465027 L 31.76786041259766 19.95624160766602 Z"/>
        <path class="cls-14" d="M 7.422780990600586 2 L 2.641889572143555 18.95624160766602 L 30.44690704345703 18.95624160766602 L 25.66600799560547 2 L 7.422780990600586 2 M 5.908708572387695 0 L 27.18008041381836 0 L 33.08879852294922 20.95624160766602 L 0 20.95624160766602 L 5.908708572387695 0 Z"/>
      </g>
      <path id="사각형_2112" data-name="사각형 2112" class="cls-4" d="M0,0H138a0,0,0,0,1,0,0V1a12,12,0,0,1-12,12H12A12,12,0,0,1,0,1V0A0,0,0,0,1,0,0Z" transform="translate(8.834 86.752)"/>
      <g id="사각형_2105" data-name="사각형 2105" class="cls-5" transform="translate(35.834 116.752)">
        <rect id="fill" class="cls-13" width="77" height="2" rx="1"/>
        <path class="cls-15" d="M0,0.5h77M75.5,0v2M77,1.5h-77M1.5,2v-2"/>
      </g>
      <g id="사각형_2106" data-name="사각형 2106" class="cls-6" transform="translate(-0.166 82.752)">
        <path class="cls-13" d="M0,0H148a0,0,0,0,1,0,0V1a16,16,0,0,1-16,16H16A16,16,0,0,1,0,1V0A0,0,0,0,1,0,0Z"/>
        <path class="cls-10" d="M1.938,1H146.063a.938.938,0,0,1,.938.938v0A14.063,14.063,0,0,1,132.938,16H15.063A14.063,14.063,0,0,1,1,1.938v0A.938.938,0,0,1,1.938,1Z"/>
      </g>
    </g>
    <path id="합치기_27" data-name="합치기 27" class="cls-7" d="M5,10.5V6H.5a.5.5,0,1,1,0-1H5V.5a.5.5,0,1,1,1,0V5h4.5a.5.5,0,1,1,0,1H6v4.5a.5.5,0,1,1-1,0Z" transform="translate(1171.011 251.303)"/>
    <path id="합치기_41" data-name="합치기 41" class="cls-7" d="M6.618,13.787V7.721H.552a.552.552,0,0,1,0-1.1H6.618V.552a.551.551,0,1,1,1.1,0V6.618h6.067a.552.552,0,0,1,0,1.1H7.72v6.066a.551.551,0,0,1-1.1,0Z" transform="translate(1064.115 349.647) rotate(45)"/>
    <g id="타원_278" data-name="타원 278" class="cls-8" transform="translate(1263.011 281.303)">
      <circle class="cls-13" cx="6.5" cy="6.5" r="6.5"/>
      <circle class="cls-10" cx="6.5" cy="6.5" r="5"/>
    </g>
    <g id="타원_279" data-name="타원 279" class="cls-6" transform="translate(1249.011 297.303)">
      <circle class="cls-13" cx="4" cy="4" r="4"/>
      <circle class="cls-10" cx="4" cy="4" r="3"/>
    </g>
    <g id="타원_1485" data-name="타원 1485" class="cls-9" transform="translate(1050.011 370.303)">
      <circle class="cls-13" cx="4" cy="4" r="4"/>
      <circle class="cls-10" cx="4" cy="4" r="3.5"/>
    </g>
    <rect id="사각형_2818" data-name="사각형 2818" class="cls-10" width="249" height="187" transform="translate(1033.011 233.303)"/>
    <g id="그룹_4041" data-name="그룹 4041" transform="translate(965.011 61.303)">
      <g id="그룹_4041-2" data-name="그룹 4041" transform="translate(170 231)">
        <g id="그룹_4042" data-name="그룹 4042" transform="translate(0 0)">
          <g id="그룹_4047" data-name="그룹 4047" transform="translate(0 0)">
            <path id="패스_3680" data-name="패스 3680" class="cls-7" d="M522.2,178.733a6.453,6.453,0,0,0-7.5-1.173V167.44a6.447,6.447,0,0,0-6.44-6.44H476.44a6.447,6.447,0,0,0-6.44,6.44V212.9a6.447,6.447,0,0,0,6.44,6.44h31.82a6.447,6.447,0,0,0,6.44-6.44V196.467l8.063-8.063a6.44,6.44,0,0,0,0-9.107Zm-28.373,24.206,4.692,4.735-6.385,1.694ZM501,206.521l-6.029-6.085,17.4-17.353,6.032,6.032Zm11.122,6.384a3.868,3.868,0,0,1-3.864,3.864H476.44a3.868,3.868,0,0,1-3.864-3.864V167.44a3.868,3.868,0,0,1,3.864-3.864h31.82a3.868,3.868,0,0,1,3.864,3.864V179.7l-19.879,19.823a1.285,1.285,0,0,0-.336.584l-2.833,10.749a1.288,1.288,0,0,0,1.576,1.573l10.676-2.833a1.284,1.284,0,0,0,.581-.334l10.215-10.215Zm8.817-26.322-.712.712-6.03-6.03.718-.716a3.869,3.869,0,0,1,5.459,0l.564.565a3.868,3.868,0,0,1,0,5.464Zm0,0" transform="translate(-470 -161)"/>
          </g>
        </g>
      </g>
      <g id="그룹_4045" data-name="그룹 4045" transform="translate(177.753 239.847)">
        <g id="사각형_3165" data-name="사각형 3165" class="cls-11" transform="translate(0)">
          <rect class="cls-13" width="9.162" height="9.162" rx="1.8"/>
          <rect class="cls-10" x="1.2" y="1.2" width="6.762" height="6.762" rx="0.6"/>
        </g>
        <g id="그룹_4043" data-name="그룹 4043" transform="translate(13.593 1.552)">
          <path id="패스_3681" data-name="패스 3681" class="cls-12" d="M536.5,11691.938h12.494" transform="translate(-536.5 -11691.938)"/>
          <path id="패스_3682" data-name="패스 3682" class="cls-12" d="M536.5,11691.938h7.115" transform="translate(-536.5 -11686.464)"/>
        </g>
        <g id="그룹_4044" data-name="그룹 4044" transform="translate(1.552 15.782)">
          <path id="패스_3681-2" data-name="패스 3681" class="cls-12" d="M536.5,11691.938h17.12" transform="translate(-536.5 -11691.938)"/>
          <path id="패스_3682-2" data-name="패스 3682" class="cls-12" d="M536.5,11691.938h9.449" transform="translate(-536.5 -11686.464)"/>
          <path id="패스_3683" data-name="패스 3683" class="cls-12" d="M536.5,11691.938h6.262" transform="translate(-536.5 -11680.992)"/>
        </g>
      </g>
    </g>
  </g>
</svg>
