<svg xmlns="http://www.w3.org/2000/svg" width="335" height="196" viewBox="0 0 335 196">
  <g id="_-g-img_connection_info_01" data-name="-g-img_connection_info_01" transform="translate(-20 -304)">
    <g id="list_box" data-name="list box" transform="translate(20 304)" fill="#fff" stroke="#efefef" stroke-width="1">
      <rect width="335" height="196" rx="14" stroke="none"/>
      <rect x="0.5" y="0.5" width="334" height="195" rx="13.5" fill="none"/>
    </g>
    <g id="요약내용" transform="translate(1 187)">
      <g id="수입" transform="translate(-5 -16)">
        <g id="타이틀_태그" data-name="타이틀+태그" transform="translate(0 4)">
          <g id="tag" transform="translate(81 283)">
            <rect id="bg_tag_schedule" width="39" height="23" rx="11.5" transform="translate(4 -3)" fill="#f4efff"/>
            <text id="_21건" data-name="21건" transform="translate(12 13)" fill="#6839d3" font-size="11" font-family="Roboto-Medium, Roboto" font-weight="500"><tspan x="0" y="0">21</tspan><tspan y="0" font-family="NotoSansCJKkr-Medium, Noto Sans CJK KR">건</tspan></text>
          </g>
          <text id="지출" transform="translate(44 299)" fill="#37354e" font-size="18" font-family="NotoSansCJKkr-Bold, Noto Sans CJK KR" font-weight="700"><tspan x="0" y="0">지출</tspan></text>
        </g>
        <text id="_1_850_000원" data-name="1,850,000원" transform="translate(339 303)" fill="#37354e" font-size="16" font-family="Roboto-Medium, Roboto" font-weight="500"><tspan x="-85.408" y="0">1,850,000</tspan><tspan y="0" font-family="NotoSansCJKkr-Medium, Noto Sans CJK KR">원</tspan></text>
      </g>
      <g id="수입-2" data-name="수입" transform="translate(-5 -57)">
        <g id="타이틀_태그-2" data-name="타이틀+태그" transform="translate(0 4)">
          <g id="tag-2" data-name="tag" transform="translate(81 283)">
            <rect id="bg_tag_schedule-2" data-name="bg_tag_schedule" width="32" height="23" rx="11.5" transform="translate(4 -3)" fill="#f4efff"/>
            <text id="_3건" data-name="3건" transform="translate(12 13)" fill="#6839d3" font-size="11" font-family="Roboto-Medium, Roboto" font-weight="500"><tspan x="0" y="0">3</tspan><tspan y="0" font-family="NotoSansCJKkr-Medium, Noto Sans CJK KR">건</tspan></text>
          </g>
          <text id="수입-3" data-name="수입" transform="translate(44 299)" fill="#37354e" font-size="18" font-family="NotoSansCJKkr-Bold, Noto Sans CJK KR" font-weight="700"><tspan x="0" y="0">수입</tspan></text>
        </g>
        <text id="_5_000_000원" data-name="5,000,000원" transform="translate(339 303)" fill="#37354e" font-size="16" font-family="Roboto-Medium, Roboto" font-weight="500"><tspan x="-85.408" y="0">5,000,000</tspan><tspan y="0" font-family="NotoSansCJKkr-Medium, Noto Sans CJK KR">원</tspan></text>
      </g>
    </g>
    <g id="Title">
      <text id="공동가계부_10월_" data-name="공동가계부 10월 " transform="translate(40 350)" fill="#37354e" font-size="20" font-family="NotoSansCJKkr-Bold, Noto Sans CJK KR" font-weight="700"><tspan x="0" y="0">공동가계부 </tspan><tspan y="0" fill="#6839d3" font-family="Roboto-Bold, Roboto">10</tspan><tspan y="0" fill="#6839d3">월 </tspan></text>
      <g id="그룹_18580" data-name="그룹 18580" transform="translate(-21 162)">
        <g id="btn_sub_edit" transform="translate(286 162)" fill="#fff" stroke="#e2e3e6" stroke-width="1">
          <rect width="69" height="34" rx="6" stroke="none"/>
          <rect x="0.5" y="0.5" width="68" height="33" rx="5.5" fill="none"/>
        </g>
        <text id="캘린더" transform="translate(314 184)" fill="#737183" font-size="12" font-family="NotoSansCJKkr-Medium, Noto Sans CJK KR" font-weight="500"><tspan x="0" y="0">캘린더</tspan></text>
        <g id="ico_input_calendar" transform="translate(293.942 171.942)">
          <rect id="area" width="16" height="16" transform="translate(0.058 0.058)" fill="none" opacity="0.3"/>
          <g id="그룹_2063" data-name="그룹 2063" transform="translate(1.791 1.791)">
            <path id="패스_1268" data-name="패스 1268" d="M249.794,164.139H240.74a1.768,1.768,0,0,1-1.74-1.791v-8.058a1.768,1.768,0,0,1,1.74-1.791h9.053a1.768,1.768,0,0,1,1.74,1.791v8.058A1.768,1.768,0,0,1,249.794,164.139ZM240.74,153.4a.872.872,0,0,0-.845.9v8.058a.872.872,0,0,0,.845.9h9.053a.872.872,0,0,0,.845-.9v-8.058a.872.872,0,0,0-.845-.9Z" transform="translate(-239 -151.381)" fill="#737183"/>
            <path id="패스_1269" data-name="패스 1269" d="M251.087,156.9H239.448a.448.448,0,0,1,0-.9h11.639a.448.448,0,0,1,0,.9Z" transform="translate(-239 -151.747)" fill="#737183"/>
            <path id="패스_1270" data-name="패스 1270" d="M242.948,154.384a.448.448,0,0,1-.448-.448V151.7a.448.448,0,0,1,.9,0v2.238A.448.448,0,0,1,242.948,154.384Z" transform="translate(-239.366 -151.25)" fill="#737183"/>
            <path id="패스_1271" data-name="패스 1271" d="M248.948,154.384a.448.448,0,0,1-.448-.448V151.7a.448.448,0,0,1,.9,0v2.238A.448.448,0,0,1,248.948,154.384Z" transform="translate(-239.994 -151.25)" fill="#737183"/>
          </g>
        </g>
      </g>
    </g>
    <g id="기간" transform="translate(19 197.01)">
      <g id="text" transform="translate(20 164.996)">
        <path id="date-area" d="M0,0H70a6,6,0,0,1,6,6V18a6,6,0,0,1-6,6H6a6,6,0,0,1-6-6V0A0,0,0,0,1,0,0Z" transform="translate(1 6.004)" fill="#f4f4f4"/>
        <text id="_10.1_10.31" data-name="10.1~10.31" transform="translate(8 23.004)" fill="#9b9aa6" font-size="12" font-family="Roboto-Regular, Roboto"><tspan x="0" y="0">10.1~10.31</tspan></text>
      </g>
      <path id="_-g-bubble-date" data-name="-g-bubble-date" d="M3024.685-7743.742v-7l7.542,7" transform="translate(-3003.685 7914.742)" fill="#f4f4f4"/>
    </g>
  </g>
</svg>
